<?xml version="1.0" encoding="UTF-8"?>
<svg width="40px" height="37px" viewBox="0 0 40 37" version="1.1" xmlns="http://www.w3.org/2000/svg" xmlns:xlink="http://www.w3.org/1999/xlink">
    <!-- Generator: sketchtool 63.1 (101010) - https://sketch.com -->
    <title>653BD4C6-89F7-41B8-B07C-441F0AA0B88C@1.5x</title>
    <desc>Created with sketchtool.</desc>
    <defs>
        <linearGradient x1="15.9683895%" y1="24.1581356%" x2="68.4017477%" y2="106.181339%" id="linearGradient-1">
            <stop stop-color="#F9F9F9" offset="0%"></stop>
            <stop stop-color="#C12335" offset="71%"></stop>
        </linearGradient>
    </defs>
    <g id="Page-1" stroke="none" stroke-width="1" fill="none" fill-rule="evenodd">
        <g id="023_error" transform="translate(-700.000000, -332.000000)">
            <g id="alert" transform="translate(555.000000, 300.000000)">
                <g transform="translate(138.000000, 24.000000)">
                    <rect id="Rectangle" x="0" y="0" width="54" height="54"></rect>
                    <path d="M13.008856,45 L41.0401078,45 C43.1529319,44.9737107 45.0982887,43.825712 46.1686179,41.973551 C47.2389471,40.12139 47.2782803,37.8349638 46.2723112,35.9458855 L32.2232883,11.0923412 C31.1722252,9.18279798 29.1879776,8 27.0356142,8 C24.8832508,8 22.8990033,9.18279798 21.8479401,11.0923412 L7.77665249,35.8553444 C6.72648731,37.750721 6.74228833,40.0697813 7.81817996,41.9501857 C8.89407158,43.8305901 10.869101,44.991031 13.008856,45 Z M27.0356142,39.4996254 C25.805969,39.4996254 24.8091446,38.4862092 24.8091446,37.2360968 C24.8091446,35.9859845 25.805969,34.9725682 27.0356142,34.9725682 C28.2652594,34.9725682 29.2620838,35.9859845 29.2620838,37.2360968 C29.2620838,38.4862092 28.2652594,39.4996254 27.0356142,39.4996254 Z M26.4567321,18.9467855 C27.5179,18.6805907 28.6122054,19.2368506 29.0394368,20.2596321 C29.1835602,20.611208 29.2591747,20.9878863 29.2620838,21.3687611 C29.2620838,22.4778902 29.1284956,23.6322898 29.0394368,24.7640541 C29.0394368,26.5069711 28.8167899,28.2951587 28.7499958,30.0380758 C28.7499958,30.6265932 28.7499958,31.1019342 28.7499958,31.6904517 C28.7020305,32.6102841 27.9413005,33.323412 27.0356142,33.297557 C26.6045067,33.3097294 26.1863154,33.1472105 25.8731213,32.8457851 C25.5599272,32.5443597 25.3774115,32.1287439 25.365762,31.6904517 C25.2321739,28.9742173 25.0540563,26.2353477 24.9204681,23.5191133 C24.9204681,22.7947842 24.9204681,22.0930903 24.7868797,21.2555847 C24.7864407,20.1829051 25.4863989,19.2402544 26.5012615,18.9467855 L26.4567321,18.9467855 Z" id="Shape" fill="url(#linearGradient-1)" fill-rule="nonzero"></path>
                </g>
            </g>
        </g>
    </g>
</svg>