<svg id="Layer_1" data-name="Layer 1" xmlns="http://www.w3.org/2000/svg" viewBox="0 0 42 42"><defs><style>.cls-1,.cls-3,.cls-5{fill:none;}.cls-2,.cls-4{fill:#243353;}.cls-2{fill-rule:evenodd;}.cls-3,.cls-5{stroke:#243353;}.cls-3{stroke-width:1.1px;}.cls-5{stroke-width:0.37px;}</style></defs><rect class="cls-1" width="42" height="42"/><g id="layer1"><g id="g11645"><path id="path10963" class="cls-2" d="M2,14.64a2,2,0,0,0,1.11,1.49c1.68.91,3.62,1.06,5.45,1.43a16.16,16.16,0,0,1,2.6.63c.24.11-.09,0-.19,0-1.49-.36-3-.44-4.55-.71a8.57,8.57,0,0,1-2.66-.87c-.16-.08-.09,0,0,.08a3.17,3.17,0,0,0,1.75,1.15,18.33,18.33,0,0,0,3.46.46,14.65,14.65,0,0,1,2.89.36c.08.06.11.15-.06.08a31,31,0,0,0-4.52-.28,8.78,8.78,0,0,1-1.76-.39c0,.08.19.2.29.32A4.31,4.31,0,0,0,8.58,19c1.17,0,2.35-.08,3.53,0,.13.21-.12.14-.26.12a27.92,27.92,0,0,0-3.3.12,6.43,6.43,0,0,1-2.05-.22c-.14,0,.06.14.11.21a2.68,2.68,0,0,0,2.2.48c.91-.06,1.82-.23,2.73-.3h.68c.06.23-.25.09-.39.13-.95,0-1.87.3-2.81.4a4.47,4.47,0,0,1-1.63-.06c-.16-.06,0,.07,0,.11a1.73,1.73,0,0,0,1.43.58A11.09,11.09,0,0,0,11.54,20c.14-.09,1-.16.53,0-.93.24-1.79.7-2.74.85a7.3,7.3,0,0,1-.81,0c.11.11.32.34.49.48a1.39,1.39,0,0,0,1.7.27,11.74,11.74,0,0,0,1.22-1.11c.11-.13.08,0,0,.12a8.36,8.36,0,0,0-.84,1.23c-.1.32,0,.75.27.37l1.23-.95c.21-.78.76-1.49.67-2.33a1.69,1.69,0,0,0-1.17-1.32A15.53,15.53,0,0,0,9.3,17a31.7,31.7,0,0,1-5.46-1.13A3.63,3.63,0,0,1,2,14.67l0,0Z"/><path id="path10989" class="cls-2" d="M40,14.59a4.46,4.46,0,0,1-2.6,1.53,57.33,57.33,0,0,1-5.65,1.06,5.53,5.53,0,0,0-2.48.79,1.7,1.7,0,0,0-.36,2c.16.43.37.84.5,1.27L30.9,22.4c.23-.55-.29-1-.57-1.42a6.27,6.27,0,0,1-.38-.57,6.53,6.53,0,0,1,.56.53c.42.42.93,1,1.61.84a2.8,2.8,0,0,0,1.28-.86c.13-.11-.13-.06-.23-.07a6.78,6.78,0,0,1-2.41-.6,5.6,5.6,0,0,0-1-.27c-.08-.22.26,0,.38-.05a16.89,16.89,0,0,0,2.95.71,1.89,1.89,0,0,0,1.5-.68c.13-.12-.34.07-.44,0a10.27,10.27,0,0,1-2.81-.26,10.84,10.84,0,0,0-1.62-.15c-.06-.22.21-.11.33-.13,1.4,0,2.77.38,4.16.3a1.69,1.69,0,0,0,1.24-.61c.13-.21-.46.07-.6.05-1.66.29-3.33-.22-5,0-.16,0,.05-.23.18-.17,1.54-.11,3.1.11,4.64-.07a2.62,2.62,0,0,0,1.77-.83c.09-.15-.33.06-.43.06-1.8.52-3.71.09-5.53.5a2.37,2.37,0,0,1-.43,0c0-.08.15-.12.29-.14,2-.46,4.12-.23,6.12-.75a3.16,3.16,0,0,0,1.82-1.26c-.26.06-.64.32-1,.4a22.89,22.89,0,0,1-4.51.86,15.12,15.12,0,0,0-2.13.41c.09-.1.32-.13.47-.2a29.2,29.2,0,0,1,3.19-.68A13.17,13.17,0,0,0,39.06,16,1.84,1.84,0,0,0,40,14.59Z"/><path id="path11031" class="cls-3" d="M21,16.28l13.35,10.4H7.65Z"/><g id="text11601"><path id="path11603" class="cls-4" d="M15.17,26.44l-.43-1H12.8l-.43,1h-1.1l2-4.62h1l2,4.62Zm-1.39-3.25-.59,1.35h1.16Z"/><path id="path11605" class="cls-4" d="M18,24.86l1.11-6.49,1.05-.83-1.75,8.9h-.82L15.8,20.75l1.06-.66Z"/><path id="path11607" class="cls-4" d="M24.18,20.84c0,1.34-.27,2.21-.83,2.6l1.11,3h-1.2l-1-2.67h-.67v2.67h-1V16.75l1.65.34c.66.13,1.16,1.19,1.45,1.63a4,4,0,0,1,.43,2.12Zm-1.85,1.31a.74.74,0,0,0,.68-.31,2.07,2.07,0,0,0,.18-1,8.88,8.88,0,0,0-.11-1.58c-.08-.39-.08-.55-.73-.9l-.73-.4v4.18Z"/><path id="path11609" class="cls-4" d="M28.85,24a1.59,1.59,0,0,0-.41-1.1,1.33,1.33,0,0,0-1-.46,1.3,1.3,0,0,0-1,.46,1.65,1.65,0,0,0,0,2.2,1.32,1.32,0,0,0,1,.45,1.35,1.35,0,0,0,1-.45A1.59,1.59,0,0,0,28.85,24Zm.37,1.78a2.65,2.65,0,0,1-3.61,0A2.41,2.41,0,0,1,24.88,24a2.36,2.36,0,0,1,.73-1.77,2.62,2.62,0,0,1,3.61,0A2.4,2.4,0,0,1,30,24,2.44,2.44,0,0,1,29.22,25.78Z"/></g><path id="path11031-6" class="cls-5" d="M21,14.83,37.13,27.41H4.86Z"/><g id="text11632"><path id="path11647" class="cls-4" d="M37.6,26.57v.58h-.11v-.58h-.21v-.1h.53v.1Z"/><path id="path11649" class="cls-4" d="M38.05,27.15h-.12v-.68h.18l.2.42.21-.42h.18v.68h-.12v-.53l-.23.47h-.07l-.23-.47Z"/></g></g></g></svg>