<svg id="Layer_1" data-name="Layer 1" xmlns="http://www.w3.org/2000/svg" viewBox="0 0 42 42"><defs><style>.cls-1{fill:none;}.cls-2{fill:#252f3e;}.cls-3{fill:#f90;}</style></defs><rect class="cls-1" width="42" height="42"/><path class="cls-2" d="M14.89,18.71a3.08,3.08,0,0,0,.1.83,6.12,6.12,0,0,0,.3.67.37.37,0,0,1,.07.21.36.36,0,0,1-.18.28l-.59.39a.4.4,0,0,1-.24.09.45.45,0,0,1-.28-.13,2.66,2.66,0,0,1-.33-.44,5.51,5.51,0,0,1-.29-.55,3.43,3.43,0,0,1-2.74,1.28,2.53,2.53,0,0,1-1.86-.67,2.36,2.36,0,0,1-.69-1.78A2.38,2.38,0,0,1,9,17a3.34,3.34,0,0,1,2.28-.73,6.8,6.8,0,0,1,1,.08c.35,0,.7.12,1.07.2v-.68a2.06,2.06,0,0,0-.43-1.49,2.14,2.14,0,0,0-1.52-.43,4.49,4.49,0,0,0-1,.12,8.32,8.32,0,0,0-1,.32,2,2,0,0,1-.33.12l-.15,0c-.13,0-.19-.09-.19-.29v-.46a.65.65,0,0,1,.06-.32.73.73,0,0,1,.26-.2,6.42,6.42,0,0,1,1.18-.42,5.65,5.65,0,0,1,1.45-.17,3.41,3.41,0,0,1,2.44.75,3.09,3.09,0,0,1,.77,2.29v3Zm-3.78,1.41a3.06,3.06,0,0,0,1-.16,2.07,2.07,0,0,0,.88-.6,1.52,1.52,0,0,0,.32-.6,3.12,3.12,0,0,0,.09-.81v-.39a7.53,7.53,0,0,0-.85-.15,6.62,6.62,0,0,0-.88-.06,2.18,2.18,0,0,0-1.39.37,1.33,1.33,0,0,0,.87,2.4Zm7.48,1a.58.58,0,0,1-.36-.09.78.78,0,0,1-.19-.37l-2.19-7.19a1.39,1.39,0,0,1-.08-.38c0-.15.07-.23.22-.23h.91a.57.57,0,0,1,.37.09.79.79,0,0,1,.18.37L19,19.49l1.45-6.16a.47.47,0,0,1,.55-.46h.74a.62.62,0,0,1,.38.09.64.64,0,0,1,.17.37l1.47,6.24,1.62-6.24a.83.83,0,0,1,.18-.37.68.68,0,0,1,.36-.09h.87a.2.2,0,0,1,.23.23.77.77,0,0,1,0,.15.65.65,0,0,1-.06.23l-2.24,7.2a.82.82,0,0,1-.2.37.64.64,0,0,1-.35.09h-.8a.62.62,0,0,1-.38-.09.67.67,0,0,1-.17-.38l-1.45-6-1.43,6a.74.74,0,0,1-.18.38.59.59,0,0,1-.37.09Zm12,.25a5.77,5.77,0,0,1-1.43-.17,4.07,4.07,0,0,1-1.07-.37.69.69,0,0,1-.29-.26.62.62,0,0,1-.06-.26v-.47c0-.2.08-.29.22-.29l.17,0,.23.1a4.85,4.85,0,0,0,1,.32,5.31,5.31,0,0,0,1.11.12,2.56,2.56,0,0,0,1.36-.31,1,1,0,0,0,.49-.89.91.91,0,0,0-.26-.65,2.23,2.23,0,0,0-.94-.48l-1.35-.42a2.88,2.88,0,0,1-1.49-.95,2.27,2.27,0,0,1-.46-1.35,2.08,2.08,0,0,1,.25-1,2.55,2.55,0,0,1,.67-.76,3,3,0,0,1,1-.48,3.76,3.76,0,0,1,1.17-.16,4.44,4.44,0,0,1,.63,0,5.36,5.36,0,0,1,.6.1,4.1,4.1,0,0,1,.53.15,1.92,1.92,0,0,1,.39.16.76.76,0,0,1,.28.24.45.45,0,0,1,.09.3v.44c0,.2-.08.3-.22.3a1.08,1.08,0,0,1-.35-.11A4.3,4.3,0,0,0,31,13.89a2.38,2.38,0,0,0-1.24.26.88.88,0,0,0-.44.82.91.91,0,0,0,.28.67,2.94,2.94,0,0,0,1,.51l1.32.42a2.81,2.81,0,0,1,1.44.89,2.09,2.09,0,0,1,.43,1.3,2.39,2.39,0,0,1-.24,1.09,2.52,2.52,0,0,1-.68.81,2.88,2.88,0,0,1-1,.53A4.48,4.48,0,0,1,30.55,21.38Z"/><path class="cls-3" d="M32.31,25.91A20.08,20.08,0,0,1,21,29.37,20.52,20.52,0,0,1,7.12,24.09c-.28-.26,0-.61.32-.41A28,28,0,0,0,21.3,27.36,27.71,27.71,0,0,0,31.87,25.2C32.38,25,32.82,25.54,32.31,25.91Zm1.28-1.46C33.2,24,31,24.21,30,24.33c-.29,0-.34-.22-.07-.42,1.75-1.22,4.63-.87,5-.46s-.09,3.3-1.73,4.67c-.25.22-.49.11-.38-.17C33.15,27,34,25,33.59,24.45Z"/></svg>