<svg id="Layer_1" data-name="Layer 1" xmlns="http://www.w3.org/2000/svg" xmlns:xlink="http://www.w3.org/1999/xlink" viewBox="0 0 42 42"><defs><style>.cls-1{fill:none;}.cls-2{fill:url(#linear-gradient);}.cls-3{clip-path:url(#clip-path);}.cls-4{opacity:0.07;isolation:isolate;}.cls-5{fill:#fff;}</style><linearGradient id="linear-gradient" x1="21" y1="162" x2="21" y2="128.23" gradientTransform="matrix(1, 0, 0, -1, 0, 166.05)" gradientUnits="userSpaceOnUse"><stop offset="0" stop-color="#4387fd"/><stop offset="1" stop-color="#4683ea"/></linearGradient><clipPath id="clip-path"><path class="cls-1" d="M10.25,36.17,2.46,22.67a3.42,3.42,0,0,1,0-3.42L10.25,5.76a3.41,3.41,0,0,1,3-1.71H28.79a3.41,3.41,0,0,1,3,1.71l7.79,13.49a3.42,3.42,0,0,1,0,3.42l-7.79,13.5a3.43,3.43,0,0,1-3,1.7H13.21A3.43,3.43,0,0,1,10.25,36.17Z"/></clipPath></defs><rect class="cls-1" width="42" height="42"/><g id="BASE"><path class="cls-2" d="M10.25,36.17,2.46,22.67a3.42,3.42,0,0,1,0-3.42L10.25,5.76a3.41,3.41,0,0,1,3-1.71H28.79a3.41,3.41,0,0,1,3,1.71l7.79,13.49a3.42,3.42,0,0,1,0,3.42l-7.79,13.5a3.43,3.43,0,0,1-3,1.7H13.21A3.43,3.43,0,0,1,10.25,36.17Z"/></g><g id="shadow"><g class="cls-3"><polygon class="cls-4" points="37.4 27.64 25.94 16.18 21 14.85 16.57 16.5 14.86 20.96 16.23 25.93 28.39 38.08 30.96 37.97 37.4 27.64"/></g></g><path class="cls-5" d="M17.73,22.84A3.82,3.82,0,0,0,19,24.16V20.7h-1.3Z"/><path class="cls-5" d="M20.31,24.65a3.82,3.82,0,0,0,.68.07,3.18,3.18,0,0,0,.62-.06V18.89h-1.3Z"/><path class="cls-5" d="M23,24.13a3.88,3.88,0,0,0,1.3-1.4V21.59H23Z"/><path class="cls-5" d="M29.12,27.91l-2.71-2.7a6.9,6.9,0,1,0-1.17,1.17L28,29.08a.33.33,0,0,0,.45,0l.72-.71A.34.34,0,0,0,29.12,27.91ZM21,26.19A5.23,5.23,0,1,1,26.22,21,5.22,5.22,0,0,1,21,26.19Z"/></svg>