<svg id="Layer_1" data-name="Layer 1" xmlns="http://www.w3.org/2000/svg" xmlns:xlink="http://www.w3.org/1999/xlink" viewBox="0 0 42 42"><defs><style>.cls-1{fill:none;}.cls-2{fill:#373535;}.cls-3{fill:#bbe6fb;}.cls-4{clip-path:url(#clip-path);}.cls-5{opacity:0.35;}.cls-6{fill:#fff;}.cls-7{fill:#1287b1;}.cls-8{clip-path:url(#clip-path-2);}.cls-9{clip-path:url(#clip-path-3);}</style><clipPath id="clip-path"><rect class="cls-1" x="12.09" y="10.7" width="15.58" height="10.97"/></clipPath><clipPath id="clip-path-2"><rect class="cls-1" x="16.53" y="12.03" width="8.1" height="8.09"/></clipPath><clipPath id="clip-path-3"><rect class="cls-1" x="2.28" y="8.89" width="37.48" height="10.91"/></clipPath></defs><rect class="cls-1" width="42" height="42"/><g id="layer1"><g id="g3012"><g id="g3014"><g id="g3020"><path id="path3022" class="cls-2" d="M6,29.54a1.19,1.19,0,0,1,.78.23c0,.24-.19.62-.33.62a1.35,1.35,0,0,0-.5-.1c-.77,0-1.15.8-1.15,1.59,0,.49.17.79.56.79a1.81,1.81,0,0,0,1.08-.49.43.43,0,0,1,.13.33.64.64,0,0,1-.2.48,1.92,1.92,0,0,1-1.39.5c-.76,0-1.29-.43-1.29-1.44A2.36,2.36,0,0,1,6,29.54Z"/></g><g id="g3024"><path id="path3026" class="cls-2" d="M8.49,32.62c.41,0,1.17-.72,1.38-2.11a1.38,1.38,0,0,1,0-.2,1.16,1.16,0,0,0-.35-.06,1.08,1.08,0,0,0-.92.49,2.34,2.34,0,0,0-.42,1.34c0,.36.1.54.27.54Zm-1.37-.38a2.91,2.91,0,0,1,.81-2,2.38,2.38,0,0,1,1.8-.7,7.14,7.14,0,0,1,1.28.2c-.08.37-.29,1.77-.38,2.59a6.3,6.3,0,0,0,0,1,3.52,3.52,0,0,1-.95.15c-.08,0-.09-.35-.07-.68,0-.11,0-.27,0-.34a2.06,2.06,0,0,1-1.66,1c-.49,0-.82-.41-.82-1.24Z"/></g><g id="g3028"><path id="path3030" class="cls-2" d="M13.12,29.54a1.21,1.21,0,0,1,.83.29c0,.24-.19.63-.49.52a1.37,1.37,0,0,0-.42-.07c-.23,0-.43.1-.43.31s.12.28.69.68a1.11,1.11,0,0,1,.57.93,1.46,1.46,0,0,1-1.61,1.29,1.17,1.17,0,0,1-.89-.33c-.16-.26,0-.76.13-.67a2.24,2.24,0,0,0,.88.23c.28,0,.46-.13.46-.3s-.13-.27-.64-.63a1.14,1.14,0,0,1-.57-1,1.36,1.36,0,0,1,1.48-1.29Z"/></g><g id="g3032"><path id="path3034" class="cls-2" d="M16,29.54a1.21,1.21,0,0,1,.83.29c0,.24-.19.63-.49.52a1.32,1.32,0,0,0-.42-.07c-.23,0-.43.1-.43.31s.12.28.69.68a1.09,1.09,0,0,1,.57.93,1.45,1.45,0,0,1-1.6,1.29,1.18,1.18,0,0,1-.9-.33c-.15-.26,0-.76.13-.67a2.25,2.25,0,0,0,.89.23c.27,0,.45-.13.45-.3s-.12-.27-.64-.63a1.16,1.16,0,0,1-.57-1A1.36,1.36,0,0,1,16,29.54Z"/></g><g id="g3036"><path id="path3038" class="cls-2" d="M18.71,32.62c.42,0,1.17-.72,1.38-2.11,0-.09,0-.11,0-.2a1.15,1.15,0,0,0-.34-.06,1.08,1.08,0,0,0-.93.49,2.42,2.42,0,0,0-.42,1.34c0,.36.1.54.27.54Zm-1.36-.38a2.94,2.94,0,0,1,.8-2,2.39,2.39,0,0,1,1.81-.7,7,7,0,0,1,1.27.2c-.08.37-.28,1.77-.38,2.59a6.3,6.3,0,0,0,0,1,3.46,3.46,0,0,1-.95.15c-.07,0-.09-.35-.07-.68,0-.11,0-.27,0-.34a2.07,2.07,0,0,1-1.67,1c-.49,0-.81-.41-.81-1.24Z"/></g><g id="g3040"><path id="path3042" class="cls-2" d="M23.15,30.64a2,2,0,0,1,1.61-1.1c.6,0,.79.56.68,1.36-.06.37-.16.9-.22,1.39a6.72,6.72,0,0,0-.1,1.05,3.53,3.53,0,0,1-1,.15,2.13,2.13,0,0,1,0-1c.07-.41.21-1.14.28-1.57,0-.24,0-.54-.2-.54s-1.06.5-1.43,2.55a.47.47,0,0,1-.19.33,2,2,0,0,1-.95.15c.1-.51.26-1.57.38-2.35a6.32,6.32,0,0,0,.13-1.35,9.2,9.2,0,0,1,1-.21c.1,0,.11.26,0,.9,0,.06,0,.15,0,.2Z"/></g><g id="g3044"><path id="path3046" class="cls-2" d="M27.45,32.62c.37,0,1.13-.7,1.34-1.93,0-.06,0-.19.05-.27a.66.66,0,0,0-.48-.17c-.86,0-1.24,1-1.24,1.76,0,.4.14.61.32.61Zm-.56.87c-.54,0-.88-.48-.88-1.31a2.42,2.42,0,0,1,2.3-2.64,1.31,1.31,0,0,1,.62.15c.08-.39.26-1.59.27-1.94a6.43,6.43,0,0,1,1-.12c.09,0,.12.09.08.3-.2,1.27-.56,3.71-.63,4.25a8.67,8.67,0,0,0-.05,1.16,3.19,3.19,0,0,1-1,.15c-.06,0-.09-.39-.07-.74,0-.11,0-.27,0-.3a1.91,1.91,0,0,1-1.65,1Z"/></g><g id="g3048"><path id="path3050" class="cls-2" d="M31.86,30.76c.44-1,1-1.22,1.33-1.22a.58.58,0,0,1,.35.15,1.78,1.78,0,0,1-.38,1,.84.84,0,0,0-.37-.1c-.29,0-.86.45-1.21,2.38,0,.16-.08.23-.17.27a3.11,3.11,0,0,1-1,.16c.13-.69.35-2.1.44-2.93a4.91,4.91,0,0,0,0-.76,4.25,4.25,0,0,1,.94-.22c.08,0,.14.47,0,1.22Z"/></g><g id="g3052"><path id="path3054" class="cls-2" d="M34.85,32.62c.41,0,1.16-.72,1.38-2.11a.69.69,0,0,1,0-.2,1.16,1.16,0,0,0-.35-.06,1.08,1.08,0,0,0-.92.49,2.34,2.34,0,0,0-.42,1.34c0,.36.1.54.27.54Zm-1.37-.38a2.91,2.91,0,0,1,.81-2,2.38,2.38,0,0,1,1.8-.7,7.14,7.14,0,0,1,1.28.2c-.09.37-.29,1.77-.38,2.59a6.3,6.3,0,0,0,0,1,3.52,3.52,0,0,1-1,.15c-.08,0-.1-.35-.07-.68,0-.11,0-.27,0-.34a2.07,2.07,0,0,1-1.67,1c-.49,0-.81-.41-.81-1.24Z"/></g></g></g></g><g id="g2828"><g id="g2830"><g id="g2836"><path id="path2838" class="cls-3" d="M32.36,15.19c.28,3.25-4.85,6.35-11.45,6.92S8.74,20.49,8.46,17.24s4.84-6.36,11.44-6.92,12.18,1.61,12.46,4.87"/></g></g></g><g id="g2840"><g id="g2842"><g id="g2848"><g id="g2856"><g class="cls-4"><g id="g2858" class="cls-5"><g id="g2860"><path id="path2862" class="cls-6" d="M20.09,10.7a20.51,20.51,0,0,0-7.65,1.89,6.31,6.31,0,0,0-.35,2.08c0,3.87,3.49,7,7.79,7s7.79-3.13,7.79-7a6.37,6.37,0,0,0-1-3.37,50,50,0,0,0-6.61-.6"/></g></g></g></g></g></g></g><g id="g2864"><g id="g2866"><g id="g2872"><path id="path2874" class="cls-6" d="M19.88,10.7a18.11,18.11,0,0,0-5.8,1.36,5.89,5.89,0,0,0-.48,2.33,6.38,6.38,0,0,0,6.32,6.13,6.57,6.57,0,0,0,6.31-6.13,5.25,5.25,0,0,0-.83-3,53.7,53.7,0,0,0-5.52-.66"/></g></g></g><g id="g2876"><g id="g2878"><g id="g2884"><path id="path2886" class="cls-2" d="M16.3,14a4.14,4.14,0,0,1,.68-.88,1.87,1.87,0,0,1-.09-.41.69.69,0,0,1,.69-.69.75.75,0,0,1,.26,0A5,5,0,0,1,22,11.11l.4.11a5.89,5.89,0,0,0-4.31,1.24,2,2,0,0,1,.13.42c0,.38-.25.47-.63.47a.93.93,0,0,1-.24,0,6.35,6.35,0,0,0-.73,1.42,5.49,5.49,0,0,0,1.94,1s0-.07,0-.11a2.15,2.15,0,0,1,2.16-2.08,2.07,2.07,0,0,1,2,1.73,5,5,0,0,0,1.39-1.06A1.2,1.2,0,0,1,24,13.7a.63.63,0,0,1,.62-.63l.15,0a6,6,0,0,0,.43-1.25c-1.8-1.32-5.27-1.14-5.27-1.14a11.22,11.22,0,0,0-4.63.76,5.46,5.46,0,0,0,1,2.49"/></g><g id="g2888"><path id="path2890" class="cls-2" d="M24.88,13.43a1.88,1.88,0,0,1,.25.31c.17.31-.17.58-.52.58h-.1a6.6,6.6,0,0,1-1.67,1.78,5.35,5.35,0,0,1,2.5,1.1,7.51,7.51,0,0,0,.89-3.34,2.35,2.35,0,0,0-.94-1.92,6.93,6.93,0,0,1-.41,1.5"/></g><g id="g2892"><path id="path2894" class="cls-2" d="M17.34,19.19a5.23,5.23,0,0,1,1.79-2.1,4.64,4.64,0,0,1-.33-.67A5,5,0,0,1,16.55,15s0,0,0,.06a4.83,4.83,0,0,0-.08,1.51.91.91,0,0,1,.74.89,1.35,1.35,0,0,1-.41.81,4.77,4.77,0,0,0,.56.93"/></g><g id="g2896"><path id="path2898" class="cls-2" d="M17.29,19.91a6.79,6.79,0,0,1-.87-1.56h-.13c-.5,0-1-.42-.91-.91a.91.91,0,0,1,.55-.59A6.33,6.33,0,0,1,16,14.92a3.33,3.33,0,0,1,.16-.4,5.29,5.29,0,0,1-.91-2.92s0-.07,0-.11a2.58,2.58,0,0,0-1.64,2.36,6.74,6.74,0,0,0,3.68,6.08v0"/></g><g id="g2900"><path id="path2902" class="cls-2" d="M22.7,16.36a2.09,2.09,0,0,1-2,1.39,2,2,0,0,1-1.28-.45,6.12,6.12,0,0,0-1.73,2.43,5.93,5.93,0,0,0,.43.44,8,8,0,0,0,1.76,0,6.2,6.2,0,0,0,5.31-2.72,5.54,5.54,0,0,0-2.53-1.09"/></g></g></g><g id="g2904"><g id="g2906"><g id="g2912"><path id="path2914" class="cls-7" d="M16.24,14.25a5.08,5.08,0,0,1,.64-1.05.61.61,0,0,1,0-.24.68.68,0,0,1,.68-.69.75.75,0,0,1,.26.05,5,5,0,0,1,4.15-.91l.41.11a5.52,5.52,0,0,0-4.18,1.17.65.65,0,0,1,.05.27.69.69,0,0,1-.69.69,1,1,0,0,1-.24,0,4.68,4.68,0,0,0-.63,1.14,5.25,5.25,0,0,0,2,1.33s0-.08,0-.11a2.08,2.08,0,0,1,4.13-.35,5.41,5.41,0,0,0,1.34-1.23.66.66,0,0,1-.14-.39.63.63,0,0,1,.63-.63l.14,0a5.43,5.43,0,0,0,.43-1.25C23.33,10.82,19.86,11,19.86,11a11.22,11.22,0,0,0-4.63.76,5.46,5.46,0,0,0,1,2.49"/></g><g id="g2916"><path id="path2918" class="cls-7" d="M25,13.53a.62.62,0,0,1-.41,1.09h-.11a4.87,4.87,0,0,1-1.51,1.52,5.11,5.11,0,0,1,2.44,1.09,6.21,6.21,0,0,0,.8-3.07,2.38,2.38,0,0,0-.94-1.92,4.7,4.7,0,0,1-.27,1.3"/></g><g id="g2920"><path id="path2922" class="cls-7" d="M17.44,19.39A5,5,0,0,1,19,17.19a1.92,1.92,0,0,1-.25-.47,5.06,5.06,0,0,1-2.26-1.43s0,0,0,.06a4.54,4.54,0,0,0-.07,1.51.9.9,0,0,1,.44,1.56,6,6,0,0,0,.6,1"/></g><g id="g2924"><path id="path2926" class="cls-7" d="M17.29,19.9a5.11,5.11,0,0,1-.92-1.25h-.14a.91.91,0,0,1-.91-.91.9.9,0,0,1,.51-.81,5.27,5.27,0,0,1,.09-1.72c0-.16.08-.32.13-.48a5,5,0,0,1-.87-2.84v-.11a2.59,2.59,0,0,0-1.63,2.36,6.32,6.32,0,0,0,3.73,5.77v0"/></g><g id="g2928"><path id="path2930" class="cls-7" d="M22.64,16.66a2.07,2.07,0,0,1-3.24.94,5.08,5.08,0,0,0-1.61,2.21,5.11,5.11,0,0,0,.48.45,6,6,0,0,0,1.59.21,6.32,6.32,0,0,0,5.3-2.88,5.26,5.26,0,0,0-2.52-.93"/></g></g></g><g id="g2932"><g id="g2934"><g id="g2940"><g id="g2948"><g class="cls-8"><g id="g2950"><g id="g2952"><path id="path2954" class="cls-6" d="M22.71,16.12l1.92-.46-1.92-.09,1.56-1.2L22.49,15l1.21-1.67L22,14.44l.59-2-1.15,1.61,0-2-.75,1.82L20.06,12l0,2.17L19,12.25l.59,2.07L17.83,13l1.38,1.73L17,14l1.73,1.28-2.21.06,2.26.59-2.27.49,2.24.16-1.89,1.21,1.95-.7-1.35,1.7,1.7-1.37-.61,2.29,1.32-1.86L19.7,20l.75-2,.63,2.1.16-2.1.94,1.79-.56-2,1.73,1.34-1.11-1.71,1.89.74L22.68,16.7l1.95.16Z"/></g></g></g></g></g></g></g><g id="g2956"><g id="g2958"><g id="g2964"><g id="g2972"><g class="cls-9"><g id="g2974" class="cls-5"><g id="g2976"><path id="path2978" class="cls-2" d="M2.28,19.79c6-5.95,10.7-7.79,15-8.63.57-.11.68-1.35.68-1.35s.08.91.48,1,.92-1.43.92-1.43-.48,1.39,0,1.47,1.36-1.35,1.36-1.35-.36,1.23-.12,1.31,1.43-1.79,1.43-1.79-.71,1.23,0,1.35,1.68-.84,1.68-.84-.78.88-.44,1c1.48.52,2.68-1.4,2.68-1.4a6.55,6.55,0,0,1-1,1.76c1.56.4,2.72-1.94,2.72-1.94l-1.16,2.34c.6.32,3-2.43,3-2.43a11.08,11.08,0,0,1-2,2.59c.4.32,1.84-1,1.84-1S28.21,12,28.65,12c.64.52,3-2.67,3-2.67a16,16,0,0,1-2.27,3.35c1.13.57,3.95-3.07,3.95-3.07s-.08,1.15-2.12,3c1.52-.2,3.48-3.07,3.48-3.07a9.54,9.54,0,0,1-2.44,3.67c1.49-.15,3.88-3.83,3.88-3.83a10.24,10.24,0,0,1-2.8,4c2.08.46,5.08-2.64,5.08-2.64a9.23,9.23,0,0,1-2.72,3.1c1.72.66,4.08-2.06,4.08-2.06s-2.36,3.64-6.12,3.48c-1.23-.05-5-3.74-12.94-3.44-10.55.4-12.79,4.88-18.42,7.91"/></g></g></g></g></g><g id="g2980"><path id="path2982" class="cls-2" d="M2.52,19.34c6-5.95,10.71-7.79,15-8.63.58-.11.68-1.36.68-1.36s.08.92.48,1S19.62,9,19.62,9s-.48,1.4,0,1.48S21,9.07,21,9.07s-.36,1.24-.12,1.32,1.44-1.8,1.44-1.8-.72,1.24,0,1.36,1.67-.84,1.67-.84-.78.88-.43,1c1.48.52,2.67-1.4,2.67-1.4a6.67,6.67,0,0,1-1,1.76c1.55.4,2.71-2,2.71-2l-1.16,2.35c.6.32,3-2.44,3-2.44a11.09,11.09,0,0,1-2,2.6c.4.32,1.84-1,1.84-1s-1.16,1.44-.72,1.52c.64.52,3-2.68,3-2.68a16.23,16.23,0,0,1-2.28,3.36c1.14.57,4-3.08,4-3.08s-.08,1.16-2.12,3C33,12,34.93,9.11,34.93,9.11a9.54,9.54,0,0,1-2.44,3.68C34,12.63,36.36,9,36.36,9a10.29,10.29,0,0,1-2.79,4c2.07.46,5.07-2.64,5.07-2.64a9.23,9.23,0,0,1-2.72,3.1c1.72.66,4.08-2.06,4.08-2.06S37.64,15,33.89,14.87c-1.24-.06-5-3.74-12.95-3.44-10.55.4-12.79,4.88-18.42,7.91"/></g></g></g><g id="g2986"><g id="g2992"><g id="g3000"><g id="g3002" class="cls-5"><g id="g3004"><path id="path3006" class="cls-2" d="M2.12,20.45c3.15,1.57,6-.24,9.65.78A23.77,23.77,0,0,0,22.44,22.3c4.55-.66,8.45-2.63,10.31-6.17.58-1.58,2.93.36,2.93.36S34,15.77,34,16.11s2.57,1.52,2.57,1.52-2.29-.72-2.15-.18,2.87,2.7,2.87,2.7-3.09-2.36-3.35-2,1.31,1.62,1.31,1.62-2.61-1.62-3.53-1.14c-.66.34,2.72,2.56,2.72,2.56s-2.2-1.68-2.72-1.24,2.48,4,2.48,4-3.4-3.67-3.74-3.49.94,1.93.94,1.93-1.68-1.83-2.14-1.51S31.67,26,31.67,26s-3.1-4.89-4.38-4.08c2,4.41,1.26,5,1.26,5s-.25-4.5-2.76-4.38c-1.25.06.6,3.36.6,3.36s-1.71-3-2.85-2.95c2.1,4,1.36,5.59,1.36,5.59a6,6,0,0,0-2.5-5.28c1.07,1-.68,5.28-.68,5.28s1.54-6.37-1.14-5.16c-.42.19,0,3.18,0,3.18S20,23.14,19.2,23.32c-.47.11-3,4.74-3,4.74s2.07-5,1.44-4.8c-.46.16-1.32,2.22-1.32,2.22s.42-2,0-2.16-2.75,2.16-2.75,2.16,1.74-2,1.44-2.46a1.22,1.22,0,0,0-1.62-.42,7.6,7.6,0,0,0-2.16,2s1.23-1.7,1-2.34c-.35-1-3.9,2-3.9,2s2.1-2,1.62-2.4-3.08-.29-3.89-.29c-2.4,0-3.23-.57-4-1.14"/></g></g></g></g><g id="g3008"><path id="path3010" class="cls-2" d="M2,20.09c3.15,1.57,6-.24,9.65.78a23.77,23.77,0,0,0,10.67,1.07c4.55-.66,8.45-2.63,10.31-6.17.58-1.58,2.93.36,2.93.36s-1.71-.72-1.67-.38,2.57,1.52,2.57,1.52-2.29-.72-2.15-.18,2.87,2.7,2.87,2.7-3.09-2.36-3.35-2,1.31,1.62,1.31,1.62-2.61-1.62-3.53-1.14c-.66.34,2.72,2.56,2.72,2.56s-2.2-1.68-2.72-1.24,2.48,4,2.48,4-3.4-3.67-3.74-3.49.94,1.93.94,1.93-1.68-1.83-2.14-1.51,2.4,5.09,2.4,5.09-3.1-4.89-4.38-4.08c2,4.41,1.26,5,1.26,5s-.25-4.5-2.76-4.38c-1.25.06.6,3.36.6,3.36s-1.71-3-2.84-2.95c2.09,4,1.35,5.59,1.35,5.59a6,6,0,0,0-2.5-5.28c1.07,1-.68,5.28-.68,5.28s1.54-6.37-1.14-5.16c-.42.19,0,3.18,0,3.18s-.54-3.42-1.35-3.24c-.47.11-3,4.74-3,4.74s2.07-5,1.44-4.8c-.45.16-1.32,2.22-1.32,2.22s.42-2,0-2.16-2.75,2.16-2.75,2.16,1.74-2,1.44-2.46a1.22,1.22,0,0,0-1.62-.42,7.6,7.6,0,0,0-2.16,2s1.23-1.7,1-2.34c-.35-1-3.9,2-3.9,2s2.1-2,1.62-2.4S6.77,21.23,6,21.23c-2.4,0-3.23-.57-4-1.14"/></g></g></svg>