<svg id="Layer_1" data-name="Layer 1" xmlns="http://www.w3.org/2000/svg" viewBox="0 0 24 24"><defs><style>.cls-1{fill:none;}.cls-2{fill:#54595f;}</style></defs><rect class="cls-1" width="24" height="24"/><path class="cls-2" d="M12,6a.53.53,0,0,0-.53.53V12a.58.58,0,0,0,.15.38L14,14.72a.55.55,0,0,0,.38.16.55.55,0,0,0,.53-.53.55.55,0,0,0-.16-.38l-2.19-2.19V6.52A.53.53,0,0,0,12,6Z"/><path class="cls-2" d="M5.33,13.16,6.9,11.59a.54.54,0,0,0,0-.75.54.54,0,0,0-.38-.15.51.51,0,0,0-.37.15l-.63.63A6.5,6.5,0,0,1,18.11,9.78a.54.54,0,0,0,.5.35.34.34,0,0,0,.18,0,.53.53,0,0,0,.32-.68A7.57,7.57,0,0,0,4.45,11.52l-.68-.68a.54.54,0,0,0-.38-.15.51.51,0,0,0-.37.15.55.55,0,0,0-.16.38.52.52,0,0,0,.16.37l1.56,1.57a.54.54,0,0,0,.38.15A.51.51,0,0,0,5.33,13.16Z"/><path class="cls-2" d="M21,12.41l-1.56-1.57a.52.52,0,0,0-.38-.15.51.51,0,0,0-.37.15L17.1,12.41a.54.54,0,0,0,0,.75.54.54,0,0,0,.38.15.51.51,0,0,0,.37-.15l.64-.63a6.5,6.5,0,0,1-12.6,1.69.54.54,0,0,0-.5-.35.37.37,0,0,0-.18,0,.45.45,0,0,0-.3.27.53.53,0,0,0,0,.41,7.57,7.57,0,0,0,14.66-2.11l.68.68a.54.54,0,0,0,.38.15.51.51,0,0,0,.37-.15A.53.53,0,0,0,21,12.41Z"/></svg>