<svg id="Layer_1" data-name="Layer 1" xmlns="http://www.w3.org/2000/svg" xmlns:xlink="http://www.w3.org/1999/xlink" viewBox="0 0 42 42"><defs><style>.cls-1{fill:none;}.cls-2,.cls-3,.cls-4,.cls-5{fill-rule:evenodd;}.cls-2{fill:url(#linear-gradient);}.cls-3{fill:url(#linear-gradient-2);}.cls-4{fill:url(#linear-gradient-3);}.cls-5{fill:url(#linear-gradient-4);}.cls-6{fill:#bbe6fb;}</style><linearGradient id="linear-gradient" x1="12.5" y1="28.77" x2="30.39" y2="28.77" gradientUnits="userSpaceOnUse"><stop offset="0" stop-color="#4387fd"/><stop offset="1" stop-color="#4683ea"/></linearGradient><linearGradient id="linear-gradient-2" x1="12.5" y1="24.08" x2="30.39" y2="24.08" xlink:href="#linear-gradient"/><linearGradient id="linear-gradient-3" x1="12.5" y1="19.09" x2="30.39" y2="19.09" xlink:href="#linear-gradient"/><linearGradient id="linear-gradient-4" x1="12.5" y1="33.8" x2="30.39" y2="33.8" xlink:href="#linear-gradient"/></defs><rect class="cls-1" width="42" height="42"/><path class="cls-2" d="M22.38,27.88l-.94,0-.93,0a20.94,20.94,0,0,1-6.23-1,7.21,7.21,0,0,1-1.78-.84v3.36c1,1.07,4.43,2.05,8.94,2.05s7.93-1,9-2.05V26.07a7.37,7.37,0,0,1-1.8.85,21.16,21.16,0,0,1-6.21,1"/><path class="cls-3" d="M12.5,21.38v3.36c.94,1,3.94,1.9,8,2h2c4-.13,7-1,8-2V21.38c-1.74,1.19-5.42,1.83-8.95,1.83s-7.2-.64-8.94-1.83"/><path class="cls-4" d="M30.35,19.1c-.41-1.53-3.49-3.05-8.91-3.05s-8.48,1.51-8.89,3a.37.37,0,0,0-.05.18v.82c1,1.06,4.4,2,8.94,2s7.94-1,9-2v-.82a.47.47,0,0,0,0-.17"/><path class="cls-5" d="M12.5,30.72v2.94a.29.29,0,0,0,0,.16c.42,1.75,4.2,3.06,8.9,3.06s8.47-1.3,8.91-3.05a.33.33,0,0,0,0-.17V30.72c-1.48,1.05-4.53,1.87-8.95,1.87S14,31.77,12.5,30.72"/><path class="cls-6" d="M33.66,13c-1.72-4.08-4.19-5.58-8.18-5.21a9.08,9.08,0,0,1,3.8,4.49c5.48,1.72,6.94,6,6.5,9.22a8.39,8.39,0,0,1-4.47,6.27h1.26C40.8,27.76,43.59,15.77,33.66,13Z"/><polygon class="cls-6" points="20.54 26.89 20.55 26.89 20.54 26.77 20.54 26.77 20.53 26.89 20.54 26.89"/><path class="cls-6" d="M28.64,13c-1.93-4.61-4.84-5.94-9.81-5C12.78,2,5.27,6.08,5.51,14-.91,19,2.12,27.76,9.39,27.76H11.5V19.27a1.31,1.31,0,0,1,.11-.54c.71-2.24,4.54-3.68,9.83-3.68s9.15,1.44,9.84,3.7a1.16,1.16,0,0,1,.11.52v7.46C36.37,23.77,36.8,15.28,28.64,13Z"/></svg>