<?xml version="1.0" encoding="UTF-8"?>
<svg width="14px" height="18px" viewBox="0 0 14 18" version="1.1" xmlns="http://www.w3.org/2000/svg" xmlns:xlink="http://www.w3.org/1999/xlink">
    <!-- Generator: sketchtool 63.1 (101010) - https://sketch.com -->
    <title>7FC780A1-97C6-442A-8886-4C5FAA9FCF16@1.5x</title>
    <desc>Created with sketchtool.</desc>
    <g id="Page-1" stroke="none" stroke-width="1" fill="none" fill-rule="evenodd">
        <g id="012_dataSource_list" transform="translate(-1338.000000, -210.000000)">
            <g id="Group-2" transform="translate(1301.000000, 207.000000)">
                <g id="delete" transform="translate(32.000000, 0.000000)">
                    <g>
                        <rect id="Rectangle" x="0" y="0" width="24" height="24"></rect>
                        <path d="M7.89,20.76 C7.04806068,20.7508054 6.35731171,20.0906592 6.31,19.25 L5.84,7.93 C5.83458826,7.7973635 5.88214306,7.6680191 5.97218261,7.57047626 C6.06222216,7.47293341 6.18735501,7.41519952 6.32,7.40986989 L6.32,7.40986989 C6.59609889,7.40387606 6.82882431,7.61464624 6.85,7.89 L7.32,19.21 C7.34076043,19.510794 7.58852377,19.7455171 7.89,19.75 L16.11,19.75 C16.4114762,19.7455171 16.6592396,19.510794 16.68,19.21 L17.15,7.89 C17.1659028,7.62011409 17.3896464,7.40953188 17.66,7.40986989 C17.800576,7.40778233 17.9353321,7.46605524 18.03,7.57 C18.1166638,7.66961717 18.1630228,7.79799601 18.16,7.93 L17.69,19.25 C17.6426883,20.0906592 16.9519393,20.7508054 16.11,20.76 L7.89,20.76 Z" id="Path" fill="#54595F" fill-rule="nonzero"></path>
                        <path d="M12,18.06 C11.9001125,18.06 11.8044537,18.0196847 11.7347705,17.9481182 C11.6650873,17.8765516 11.6273003,17.7798511 11.63,17.68 L11.63,8.94 C11.63,8.80781173 11.7005216,8.68566472 11.815,8.61957058 C11.9294784,8.55347644 12.0705216,8.55347644 12.185,8.61957058 C12.2994784,8.68566472 12.37,8.80781173 12.37,8.94 L12.37,17.68 C12.3726997,17.7798511 12.3349127,17.8765516 12.2652295,17.9481182 C12.1955463,18.0196847 12.0998875,18.06 12,18.06 Z" id="Path" fill="#54595F" fill-rule="nonzero"></path>
                        <path d="M9.43,18.06 C9.22397581,18.0600714 9.05542168,17.8959528 9.05,17.69 L8.8,9 C8.79169992,8.89963137 8.82832351,8.80074768 8.9,8.73 C8.9699338,8.6607781 9.06195214,8.6183081 9.16,8.60999966 L9.16,8.60999966 C9.3678163,8.60972657 9.53934292,8.77245695 9.55,8.98 L9.8,17.72 C9.80830008,17.8203686 9.77167649,17.9192523 9.7,17.99 C9.6300662,18.0592219 9.53804786,18.1016919 9.44,18.1099997 L9.43,18.06 Z" id="Path" fill="#54595F" fill-rule="nonzero"></path>
                        <path d="M14.56,18.06 C14.4619521,18.0516919 14.3699338,18.0092219 14.3,17.94 C14.2283235,17.8692523 14.1916999,17.7703686 14.2,17.67 L14.45,8.93 C14.4604012,8.72626301 14.6260581,8.5649655 14.83,8.56 C14.9315636,8.5659778 15.0275048,8.60861833 15.1,8.68 C15.1716765,8.75074768 15.2083001,8.84963137 15.2,8.95 L15,17.69 C14.9945783,17.8959528 14.8260242,18.06 14.62,18.06 L14.56,18.06 Z" id="Path" fill="#54595F" fill-rule="nonzero"></path>
                        <path d="M18.43,5.22 L15,5.22 L14.79,4.47 C14.5617792,3.75632017 13.9089083,3.263663 13.16,3.24 L10.84,3.24 C10.0910917,3.263663 9.43822079,3.75632017 9.21,4.47 L9,5.22 L5.57,5.22 C5.33183973,5.26786962 5.16049876,5.47707652 5.16049876,5.72 C5.16049876,5.96292348 5.33183973,6.17213038 5.57,6.22 L18.43,6.22 C18.6681603,6.17213038 18.8395012,5.96292348 18.8395012,5.72 C18.8395012,5.47707652 18.6681603,5.26786962 18.43,5.22 Z M10.18,4.75 C10.2819275,4.46760008 10.5405518,4.2716726 10.84,4.25 L13.16,4.25 C13.4594482,4.2716726 13.7180725,4.46760008 13.82,4.75 L13.96,5.22 L10,5.22 L10.18,4.75 Z" id="Shape" fill="#54595F" fill-rule="nonzero"></path>
                    </g>
                </g>
            </g>
        </g>
    </g>
</svg>