<?xml version="1.0" encoding="UTF-8"?>
<svg width="16px" height="18px" viewBox="0 0 16 18" version="1.1" xmlns="http://www.w3.org/2000/svg" xmlns:xlink="http://www.w3.org/1999/xlink">
    <!-- Generator: sketchtool 63.1 (101010) - https://sketch.com -->
    <title>53C7F30A-09D8-494A-AFA3-74C063976E28@1.5x</title>
    <desc>Created with sketchtool.</desc>
    <g id="Page-1" stroke="none" stroke-width="1" fill="none" fill-rule="evenodd">
        <g id="039_dropCol_01" transform="translate(-1362.000000, -218.000000)">
            <g id="table" transform="translate(51.000000, 201.000000)">
                <g id="Drop_colv" transform="translate(1307.000000, 14.000000)">
                    <rect id="Rectangle" x="0" y="0" width="24" height="24"></rect>
                    <path d="M16.83,10.79 C16.5428119,10.79 16.31,10.5571881 16.31,10.27 L16.31,4.27 C16.3127202,4.19932792 16.286533,4.13059731 16.2374756,4.07965309 C16.1884182,4.02870887 16.1207244,3.99994767 16.05,4 L6,4 C5.85640597,4 5.74,4.11640597 5.74,4.26 L5.74,5.12 C5.67622705,5.34324997 5.47217997,5.49717143 5.24,5.49717143 C5.00782003,5.49717143 4.80377295,5.34324997 4.74,5.12 L4.74,3.52 C4.74,3.23281193 4.97281193,3 5.26,3 L16.83,3 C17.1171881,3 17.35,3.23281193 17.35,3.52 L17.35,10.27 C17.35,10.5571881 17.1171881,10.79 16.83,10.79 L16.83,10.79 Z" id="Path" fill="#C12335" fill-rule="nonzero"></path>
                    <path d="M5.26,21 C4.97281193,21 4.74,20.7671881 4.74,20.48 L4.74,18.64 C4.67938067,18.4277899 4.75932053,18.2004307 4.93940944,18.072854 C5.11949834,17.9452773 5.36050166,17.9452773 5.54059056,18.072854 C5.72067947,18.2004307 5.80061933,18.4277899 5.74,18.64 L5.74,19.7 C5.72822739,19.7755752 5.75032916,19.8525003 5.80042262,19.9103004 C5.85051607,19.9681005 5.92351877,20.0009114 6,20 L10,20 C10.22325,20.0637729 10.3771714,20.26782 10.3771714,20.5 C10.3771714,20.73218 10.22325,20.9362271 10,21 L5.26,21 Z" id="Path" fill="#C12335" fill-rule="nonzero"></path>
                    <path d="M5.24,16.22 C4.94176624,16.22 4.7,15.9782338 4.7,15.68 L4.7,15.14 C4.7,14.8417662 4.94176624,14.6 5.24,14.6 C5.53823376,14.6 5.78,14.8417662 5.78,15.14 L5.78,15.68 C5.78,15.9782338 5.53823376,16.22 5.24,16.22 L5.24,16.22 Z M5.24,13.5100007 C4.95309969,13.5104431 4.71593858,13.2864576 4.7,13 L4.7,12.45 C4.7,12.1517662 4.94176624,11.91 5.24,11.91 C5.53823376,11.91 5.78,12.1517662 5.78,12.45 L5.78,13 C5.76406142,13.2864576 5.52690031,13.5104431 5.24,13.5100007 L5.24,13.5100007 Z M5.24,10.8 C4.94015573,10.7945474 4.69995043,10.5498938 4.69999999,10.25 L4.69999999,9.71 C4.69999999,9.41176624 4.94176624,9.17 5.24,9.17 C5.53823376,9.17 5.78000001,9.41176624 5.78000001,9.71 L5.78000001,10.25 C5.78004957,10.5498938 5.53984427,10.7945474 5.24,10.8 L5.24,10.8 Z M5.24,8.08 C4.94176624,8.08 4.7,7.83823376 4.7,7.54 L4.7,7 C4.7,6.70176624 4.94176624,6.46 5.24,6.46 C5.53823376,6.46 5.78,6.70176624 5.78,7 L5.78,7.54 C5.78,7.83823376 5.53823376,8.08 5.24,8.08 L5.24,8.08 Z" id="Shape" fill="#C12335" fill-rule="nonzero"></path>
                    <path d="M14.78,20.6700111 C12.9468814,20.6740466 11.2920125,19.5729169 10.5877026,17.8804963 C9.88339281,16.1880756 10.2684882,14.2380039 11.5632688,12.9403587 C12.8580494,11.6427135 14.8072653,11.2533096 16.5012383,11.9538775 C18.1952113,12.6544455 19.3,14.306877 19.3,16.14 C19.3,18.6379499 17.2779438,20.6644858 14.78,20.6700111 Z M14.78,12.52 C12.7807292,12.52 11.16,14.1407292 11.16,16.14 C11.16,18.1392708 12.7807292,19.76 14.78,19.76 C16.7792708,19.76 18.4,18.1392708 18.4,16.14 C18.3945062,14.1430092 16.7769908,12.5254938 14.78,12.52 L14.78,12.52 Z" id="Shape" fill="#C12335" fill-rule="nonzero"></path>
                    <path d="M15.54,16.14 L16.49,15.2 C16.6275473,15.0624528 16.6812656,14.8619733 16.6309198,14.6740802 C16.580574,14.4861872 16.4338128,14.339426 16.2459198,14.2890802 C16.0580267,14.2387344 15.8575472,14.2924527 15.72,14.43 L14.78,15.43 L13.83,14.43 C13.6195441,14.2215554 13.2804559,14.2215554 13.07,14.43 C12.9641919,14.5301043 12.9042458,14.6693422 12.9042458,14.815 C12.9042458,14.9606578 12.9641919,15.0998957 13.07,15.2 L14.01,16.14 L13.07,17.09 C12.9647264,17.188338 12.9049648,17.3259414 12.9049648,17.47 C12.9049648,17.6140586 12.9647264,17.751662 13.07,17.85 C13.1697884,17.9526355 13.3068505,18.0105409 13.45,18.0105409 C13.5931495,18.0105409 13.7302116,17.9526355 13.83,17.85 L14.78,16.91 L15.72,17.85 C15.8192076,17.9534175 15.9566974,18.011308 16.1,18.01 C16.246308,18.0117063 16.3870455,17.9539678 16.49,17.85 C16.6984446,17.6395441 16.6984446,17.3004559 16.49,17.09 L15.54,16.14 Z" id="Path" fill="#C12335" fill-rule="nonzero"></path>
                </g>
            </g>
        </g>
    </g>
</svg>