<?xml version="1.0" encoding="UTF-8"?>
<svg width="18px" height="18px" viewBox="0 0 18 18" version="1.1" xmlns="http://www.w3.org/2000/svg" xmlns:xlink="http://www.w3.org/1999/xlink">
    <!-- Generator: sketchtool 63.1 (101010) - https://sketch.com -->
    <title>045C23B7-F42E-467E-AA34-15EB47D85AD4@2x</title>
    <desc>Created with sketchtool.</desc>
    <g id="Page-1" stroke="none" stroke-width="1" fill="none" fill-rule="evenodd">
        <g id="002_connections" transform="translate(-1281.000000, -210.000000)">
            <g id="Grid" transform="translate(50.000000, 162.000000)">
                <g id="r1" transform="translate(0.000000, 30.000000)">
                    <g id="Group-2" transform="translate(1228.000000, 15.000000)">
                        <g id="edit-copy">
                            <g id="edit">
                                <rect id="Rectangle" x="0" y="0" width="24" height="24"></rect>
                                <path d="M20.4,3.58 C19.5986108,2.80915951 18.3313892,2.80915951 17.53,3.58 L10.71,10.39 C10.6475353,10.4580535 10.6028755,10.5405024 10.58,10.63 L9.86,13.5 C9.8119827,13.6797265 9.86563469,13.8713407 10,14 C10.0933647,14.0986937 10.2241796,14.1531999 10.36,14.15 C10.3994068,14.1597424 10.4405932,14.1597424 10.48,14.15 L13.35,13.44 C13.4401613,13.4134676 13.5225245,13.3654224 13.59,13.3 L20.4,6.45 C20.7891823,6.06858731 21.0058851,5.54488889 21,5 C20.9977812,4.46550821 20.7817113,3.95414287 20.4,3.58 Z M13,12.45 L11.08,12.92 L11.53,11 L17.17,5.36 L18.61,6.8 L13,12.45 Z M19.71,5.73 L19.35,6.09 L17.89,4.65 L18.25,4.29 C18.4381405,4.09758727 18.6958913,3.98912445 18.965,3.98912445 C19.2341087,3.98912445 19.4918595,4.09758727 19.68,4.29 C19.8782262,4.47370176 19.9936577,4.72981532 20,5 C19.9991084,5.27716506 19.8832232,5.54152822 19.68,5.73 L19.71,5.73 Z" id="Shape" fill="#54595F" fill-rule="nonzero"></path>
                                <path d="M20.25,11.35 C20.25,11.0738576 20.0261424,10.85 19.75,10.85 C19.4738576,10.85 19.25,11.0738576 19.25,11.35 L19.25,11.35 L19.25,11.47 L19.25,11.47 L19.25,13.61 L19.25,13.61 L19.25,18.42 L19.25,18.42 C19.258034,18.8311077 19.1023871,19.2285612 18.8173154,19.5248857 C18.5322437,19.8212102 18.1411107,19.9921201 17.73,20 L5.54,20 C5.12807765,20.0000347 4.73331093,19.8350427 4.44392304,19.5418965 C4.15453516,19.2487503 3.99465036,18.8518876 4,18.44 L4,6.24 C3.99977247,5.83600984 4.16359904,5.4492436 4.45393767,5.16833155 C4.7442763,4.8874195 5.13623731,4.73644322 5.54,4.75 L12.89,4.75 C13.1281603,4.70213038 13.2995012,4.49292348 13.2995012,4.25 C13.2995012,4.00707652 13.1281603,3.79786962 12.89,3.7499199 L5.54,3.7499199 C4.87164816,3.74467457 4.22855699,4.00507987 3.75220999,4.47392535 C3.27586299,4.94277082 3.00528333,5.58164783 3,6.25 L3,18.44 C3,19.8460752 4.13396775,20.989015 5.54,21 L17.73,21 C19.1360322,20.989015 20.27,19.8460752 20.27,18.44 L20.27,11.35 L20.25,11.35 Z" id="Path" fill="#54595F" fill-rule="nonzero"></path>
                            </g>
                        </g>
                    </g>
                </g>
            </g>
        </g>
    </g>
</svg>