<svg id="Layer_1" data-name="Layer 1" xmlns="http://www.w3.org/2000/svg" viewBox="0 0 18 18"><defs><style>.cls-1{fill:none;}.cls-2{fill:#4daf4f;}</style></defs><rect class="cls-1" width="18" height="18"/><path class="cls-2" d="M16.67,2.67H10.33v-1a.32.32,0,0,0-.12-.26.33.33,0,0,0-.28-.07l-8.67,2A.34.34,0,0,0,1,3.67V15a.33.33,0,0,0,.28.33L10,16.66a.33.33,0,0,0,.38-.27V15.33h6.34A.33.33,0,0,0,17,15V3A.33.33,0,0,0,16.67,2.67Zm-9,8.82a.34.34,0,0,1-.11.46.35.35,0,0,1-.18.05.33.33,0,0,1-.28-.16L5.67,9.63,4.28,11.84A.32.32,0,0,1,4,12a.33.33,0,0,1-.33-.33.37.37,0,0,1,.05-.18L5.27,9,3.72,6.51a.33.33,0,0,1,.09-.46.34.34,0,0,1,.46.09v0L5.67,8.37,7.05,6.16a.33.33,0,0,1,.58.33v0L6.06,9Zm4.71,3.18h-2V13.33h2Zm0-2h-2V11.33h2Zm0-2h-2V9.33h2Zm0-2h-2V7.33h2Zm0-2h-2V5.33h2Zm0-2h-2V3.33h2Zm4,10H13V13.33h3.33Zm0-2H13V11.33h3.33Zm0-2H13V9.33h3.33Zm0-2H13V7.33h3.33Zm0-2H13V5.33h3.33Zm0-2H13V3.33h3.33Z"/></svg>