<svg id="Layer_1" data-name="Layer 1" xmlns="http://www.w3.org/2000/svg" viewBox="0 0 24 24"><defs><style>.cls-1{fill:none;}.cls-2{fill:#c12335;}</style></defs><rect class="cls-1" width="24" height="24"/><path class="cls-2" d="M20.22,9.38a8.3,8.3,0,0,0-1.14-2.31A9.86,9.86,0,0,0,18.2,6a9.05,9.05,0,0,0-1-.9A8.34,8.34,0,0,0,14.9,3.88a8.11,8.11,0,0,0-2.59-.5H12A8.68,8.68,0,0,0,7.3,4.76,8.69,8.69,0,0,0,5.39,6.45a9.87,9.87,0,0,0-.8,1.12A8.6,8.6,0,0,0,4,8.82a8.4,8.4,0,0,0-.59,2.58,8.71,8.71,0,0,0,.23,2.67,8.58,8.58,0,0,0,1,2.39,8.61,8.61,0,0,0,3.76,3.37,11.56,11.56,0,0,0,1.31.49,9.9,9.9,0,0,0,1.41.26c.3,0,.6.05.9.05a9.29,9.29,0,0,0,1.79-.18,8.38,8.38,0,0,0,2.43-.92,8.7,8.7,0,0,0,2-1.55,8.65,8.65,0,0,0,2.29-4.56A10.08,10.08,0,0,0,20.63,12,8.4,8.4,0,0,0,20.22,9.38Zm-9.14,2.8V8a.92.92,0,0,1,1.57-.65,1,1,0,0,1,.27.65v4.83a.92.92,0,0,1-1.57.65.91.91,0,0,1-.27-.65Zm1.7,4.12a1.09,1.09,0,0,1-.6.31.55.55,0,0,1-.18,0,.75.75,0,0,1-.21,0,1,1,0,0,1-.59-.32,1.12,1.12,0,0,1,0-1.57,1.09,1.09,0,0,1,.48-.27,1,1,0,0,1,.3,0,1.12,1.12,0,0,1,.44.09,1.08,1.08,0,0,1,.63.7.91.91,0,0,1,0,.32A1.16,1.16,0,0,1,12.78,16.3Z"/></svg>