<svg id="Layer_1" data-name="Layer 1" xmlns="http://www.w3.org/2000/svg" viewBox="0 0 42 42"><defs><style>.cls-1{fill:#ea4335;}.cls-2{fill:#4285f4;}.cls-3{fill:#34a853;}.cls-4{fill:#fbbc05;}.cls-5{fill:none;}</style></defs><path class="cls-1" d="M26.11,14.13h.12l-.07-.06,4.56-4.56V9.42A14.84,14.84,0,0,0,6.58,16.67a1.21,1.21,0,0,1,.25-.08,10.74,10.74,0,0,1,5.84-1.78,11.13,11.13,0,0,1,2.09.2.13.13,0,0,1,.1,0,8.24,8.24,0,0,1,11.27-.86Z"/><path class="cls-2" d="M35.28,16.67A14.89,14.89,0,0,0,30.8,9.44l-4.64,4.63a8.23,8.23,0,0,1,3,6.54v.82c5.5,0,5.5,8.25,0,8.25H20.92v6.55h0l.05,0h8.25a10.73,10.73,0,0,0,6.1-19.62Z"/><path class="cls-3" d="M12.67,36.24h8.25v-6.6H12.67A4.12,4.12,0,0,1,11,29.27L6.2,34v.05a10.73,10.73,0,0,0,6.48,2.15Z"/><path class="cls-4" d="M12.67,14.81A10.73,10.73,0,0,0,6.19,34.05L11,29.27a4.13,4.13,0,1,1,5.46-5.46L21.22,19a10.72,10.72,0,0,0-8.55-4.21Z"/><rect class="cls-5" x="-0.08" width="42" height="42"/></svg>