<?xml version="1.0" encoding="UTF-8"?>
<svg width="17px" height="12px" viewBox="0 0 17 12" version="1.1" xmlns="http://www.w3.org/2000/svg" xmlns:xlink="http://www.w3.org/1999/xlink">
    <!-- Generator: sketchtool 63.1 (101010) - https://sketch.com -->
    <title>0F0B5C48-3850-42C6-BD27-68A34E919736@1.5x</title>
    <desc>Created with sketchtool.</desc>
    <g id="Page-1" stroke="none" stroke-width="1" fill="none" fill-rule="evenodd">
        <g id="033_DataraSource_refine_dropCol" transform="translate(-1365.000000, -221.000000)">
            <g id="table" transform="translate(51.000000, 201.000000)">
                <g id="hamburger-copy-7" transform="translate(1310.500000, 14.000000)">
                    <rect id="Rectangle" x="0" y="0" width="24" height="24"></rect>
                    <path d="M19.3,7 L4.7,7 C4.42385763,7 4.2,6.77614237 4.2,6.5 C4.2,6.22385763 4.42385763,6 4.7,6 L19.3,6 C19.5761424,6 19.8,6.22385763 19.8,6.5 C19.8,6.77614237 19.5761424,7 19.3,7 Z" id="Path" fill="#54595F" fill-rule="nonzero"></path>
                    <path d="M19.3,12.5 L4.7,12.5 C4.42385763,12.5 4.2,12.2761424 4.2,12 C4.2,11.7238576 4.42385763,11.5 4.7,11.5 L19.3,11.5 C19.5761424,11.5 19.8,11.7238576 19.8,12 C19.8,12.2761424 19.5761424,12.5 19.3,12.5 Z" id="Path" fill="#54595F" fill-rule="nonzero"></path>
                    <path d="M19.3,18 L4.7,18 C4.42385763,18 4.2,17.7761424 4.2,17.5 C4.2,17.2238576 4.42385763,17 4.7,17 L19.3,17 C19.5761424,17 19.8,17.2238576 19.8,17.5 C19.8,17.7761424 19.5761424,18 19.3,18 Z" id="Path" fill="#54595F" fill-rule="nonzero"></path>
                </g>
            </g>
        </g>
    </g>
</svg>