<svg id="Layer_1" data-name="Layer 1" xmlns="http://www.w3.org/2000/svg" viewBox="0 0 42 42"><defs><style>.cls-1{fill:none;}</style></defs><rect class="cls-1" width="42" height="42"/><path d="M23.79,23.89c-1,0-1.95,0-2.93,0v0c-.92,0-1.85,0-2.77,0a2.91,2.91,0,0,0-2.34,1.18c-.85,1.08-1.52,2.32-2.83,3a.63.63,0,0,0-.24.53c0,.1.28.22.46.27a9.64,9.64,0,0,0,4.68.2,9.17,9.17,0,0,0,5.69-3.17,5.83,5.83,0,0,0,.76-1.44C24.4,24.13,24.25,23.88,23.79,23.89ZM5.47,21.08c-.23-.32-.48-.65-.72-1s-.37-.33-.64-.07a5,5,0,0,0-.8,5.13C4,23.78,4.77,22.41,5.47,21.08Zm31,.58c-.56-.11-.61-.34-.86-.64a44.56,44.56,0,0,0-3.88-4.67,14.35,14.35,0,0,0-9.91-4.46,29.77,29.77,0,0,0-6.26.38,2,2,0,0,1-2.14-1,3.5,3.5,0,0,1-.45-1c-.28-1.24-.52-2.5-.75-3.75-.08-.45-.21-.56-.63-.37A2.34,2.34,0,0,0,10.26,7.7a6.41,6.41,0,0,0-.33,1.88c0,1.44.13,2.87.25,4.31A2.67,2.67,0,0,1,9.58,16c-.63.73-1.17,1.53-1.76,2.29a32.43,32.43,0,0,0-5,9,10.63,10.63,0,0,0-.73,5.17c.1.62.15,1.24.22,1.85a2.22,2.22,0,0,0,1.85,1.62,3.69,3.69,0,0,0,2.25-.88,20.88,20.88,0,0,1,3.7-2.2,14.59,14.59,0,0,0,4.14-3,3,3,0,0,0,.25-.32c-.61-.14-1.17-.25-1.71-.42s-.71-.62-.31-1.1a3.83,3.83,0,0,1,.48-.41c.46-.42.94-.81,1.36-1.26s.69-.95,1-1.41a3.21,3.21,0,0,1,2.57-1.31c.64,0,1.28,0,1.92,0a1.88,1.88,0,0,0,1.31-.48A34.94,34.94,0,0,1,24,20.88a7.11,7.11,0,0,1,4.49-1.16,9.64,9.64,0,0,1,6.72,4,.46.46,0,0,1,.1.31c0,.12-.18.06-.18.06l-2-2.13c-.35.5-.54.84-.84,1.2A19,19,0,0,0,31,24.6a2,2,0,0,0,.44,2.64c.06-.1.17-.2.18-.3.06-.41.1-.72.58-.76.22,0,.07-.27.49-.29.13,0,.12.12.25.11s.15-.2.27-.25a1.73,1.73,0,0,1,.75-.07.58.58,0,0,0,.66-.47c0-.17.06-.31.14-.62a1.25,1.25,0,0,0,1.35,1,4.65,4.65,0,0,1,.91,0,3,3,0,0,1,1.24.36,2,2,0,0,1,1.39,1.25.36.36,0,0,0,.25-.17,1.39,1.39,0,0,0,.07-.51A4.64,4.64,0,0,0,36.5,21.66ZM11.43,25.45c.57,0,.65.12.41.61a1.1,1.1,0,0,0-.11.35,2.53,2.53,0,0,1-1.36,2.09c-.42.24-.78.56-1.2.8-.23.12-.59.26-.77.16s-.15-.18-.2-.33a1.72,1.72,0,0,1,0-.9,3.65,3.65,0,0,1,3.27-2.78ZM8.05,30.52a1.54,1.54,0,0,1,.74-.61c.15,0,.14.13.14.28s-.58.68-.86.5c-.07-.05,0-.15,0-.17ZM13.58,30a16.14,16.14,0,0,1-2.38,1.75c-.63.39-1.31.7-1.95,1.08-1,.58-1.93,1.19-2.89,1.79A4.18,4.18,0,0,1,4,35.56c0-.08,0-.13,0-.14A5.41,5.41,0,0,0,6.4,33.66,5.58,5.58,0,0,1,8,32.56a7.68,7.68,0,0,0,2.81-2.62c.51-.8.53-.77,1.38-.4.43.19.81.26,1.44.47ZM27.2,18.66a8.27,8.27,0,0,1,2.41.29,2.36,2.36,0,0,1,1.31.91,10.08,10.08,0,0,0-2.48-.56A7.23,7.23,0,0,0,22.85,21a23.94,23.94,0,0,0-2,1.77c-.36.38-.37.47-1.25.42.78-1.21,1.49-2.43,2.18-3.64,2.25-3.91,7.91-3.24,9.85-1a2.12,2.12,0,0,1,.2.34,8.66,8.66,0,0,0-3.19-1,7,7,0,0,0-1.52.14c-.14,0-.36.14-.36.33s.28.19.43.21Zm11.86,7.11c-.59-.91-1.48-.71-2.32-.72-.25,0-.5,0-.74,0a.89.89,0,0,1-1-.52c0-.11-.17-.28-.27-.3a.23.23,0,0,0-.14.13,1.84,1.84,0,0,1-1.88.94,1,1,0,0,0-1,.51c0,.09-.26.19-.29.16s-.21-.25-.18-.34a3.55,3.55,0,0,1,.43-.95c.52-.69,1.08-1.36,1.67-2.1.28.3.58.63.9.95a4.85,4.85,0,0,0,.77.73.66.66,0,0,0,.61,0,.65.65,0,0,0,0-.6,9.41,9.41,0,0,0-.67-.89c-.17-.22-.32-.46-.51-.75,2-.35,4.94,2.06,4.56,3.71Z"/></svg>