<svg id="Layer_1" data-name="Layer 1" xmlns="http://www.w3.org/2000/svg" viewBox="0 0 42 42"><defs><style>.cls-1{fill:none;}.cls-2{fill:#ff0;}.cls-3{fill:#ffc;}.cls-4{fill:#cc0;}</style></defs><rect class="cls-1" width="42" height="42"/><path class="cls-2" d="M16,13l-2.52.41-2.31,1-2,1.23L7.35,18l-1,1.11-1,.38L5,18.8l.47-.68.11-1H5.9l.35.32-.1-1-.38-.25v-.38l-.9.52-.82,1-.17.87.35.69.33,1.17.66.32.7,0L6.59,20l-.44,2.24.44,2.5-.48,1.15L4.51,27.6l.28,1,.76,1.19,1.42,1,.76.11.84,0L8,33.1l1.93.78,2.4.32.82-.54.07-1.45.91-1.52.06-1.2,2.22.16,2.05-.19-2.05,1.23.34,1.49,1.3,2,1.26.54,1-.41.41-.82,2.12-1.62.41.35,3.31.13.67-.54.06-.95-.22-.41L27,27.92l-1.1-2.21.19-1,.66.34,1.86,1.74.92.06,1-.41,1-.75.5-1.65,3,.19,1.8-.69,1.46-1.36,1-2,.25-2.3-.22-2.69-.57-2.4-.57-.76-.79-.25L36,13.36l-1.26.44L33.63,12l-1.11-1-.6-.38-2.4-2-1.93-1-1.92-.16-2.25.38-2,.72L20.11,9.6,19,10.89l-1.11.32L16,13"/><path class="cls-3" d="M8.68,18.74C6.51,21.26,7,24.33,7.59,27.33l-1-2.43-.35-2.22c0-.76.07-1.52.1-2.28l.91-2.17,1.36-2,2.13-1.77,2.32-1,2.73-.36L13.3,16c-2,.66-3.22,1.11-4.62,2.74"/><path class="cls-3" d="M18.86,11.05a17,17,0,0,0-3.28,4.29c-.68,1.23-1.45,2.42-2.17,3.63a4.43,4.43,0,0,0-.51,1.84l-1.06-1.27c.17-.5.34-1,.5-1.51l1.72-3.09,3.64-3.59,1.16-.3m7.43-3.64c-1.2.45-3.2.6-3.34,2a3.53,3.53,0,0,0,.67,2.52c-1.47-1.51-1.83-1.28-4.66-.81l1.22-1.72L22.3,8.07,25,7.46l1.26,0"/><path class="cls-4" d="M29.62,26.12c.4.25.39.43.32.6l.95-.38.62-.83L32,24.33l-.59-.44-2.55.33c-.06.17-.12.34-.19.52l.06.73.24.43.38.19.3,0m-.24-4.36c-1.28.37-1.27.47-1.64,1.74a4.88,4.88,0,0,1,1.64-1.74m8.5-9.49c-.23.11-.45.16-.59.36a3.52,3.52,0,0,1-1.07,1.14,3.67,3.67,0,0,1-.79.35c-.23.07-.36,0-.55.14l.34.06H36l.92-.57.54-.57.45-.91M17.52,15.11a20.23,20.23,0,0,1-1.7,3.8,11.29,11.29,0,0,0,2.12-3.14c.22-.46.26-1,.87-.8,0,.46.12.92.15,1.38.33-2.34,1.25-3.32,3.39-4.23l-1.82.22-1.71.38L18,13.94l-.46,1.17m4.15-.06c.46,2.18,1.13,4.26,1.42,6.47a4.3,4.3,0,0,1-.52,3.37,4.6,4.6,0,0,0-2,.28c-3,1-4.78,2.46-6.83-.49l2,.93,1.4-.28,2.47-1.44,1.92-.38.63-2.6-.46-3.44-.06-1.63c0-.26.08-.53.11-.79m5.24,13.46c-.26,1.76.58,2.71.24,3.2-.1.14-.24.38-.39.44-.53.24-1.27,0-1.32.1H23.68L23,32l1.09-1.27c.35-.77.7-1.54,1.06-2.31L25.79,26h.36l.76,2.47"/><path class="cls-4" d="M23.94,23.37a6,6,0,0,0,.77,1.77A20.15,20.15,0,0,1,23.57,29a3.12,3.12,0,0,1-.73,1.1,19.12,19.12,0,0,1-1.91,1.68c-.5.38-.85.19-1.46.1-.26.48-.34.74-.82,1-.74.37-1.4-.43-2-.89l1.26,2,.87.81.73.11,1-.6.51-1,1.09-.82,1.32-1.14.85-1.19L25,28.75c.33-1,.66-1.95,1-2.93,0-.37.06-.74.08-1.11l-1.22-.54c-.3-.28-.63-.52-.93-.8M14.21,29a9.84,9.84,0,0,0,4.07-.65,12.22,12.22,0,0,1,1.14-1.44,4.91,4.91,0,0,0-.62,2l-.41.6-3.09.08-1-.11-.1-.11c0-.13,0-.25,0-.38M14,28.07l-.1-1a10.64,10.64,0,0,1-.83,3.61,4.7,4.7,0,0,1-1.76,1.34,2.63,2.63,0,0,1,0,.82c-.12.91-1.94.51-2.69.47l3.61.93L13.1,34l.27-1.58L14.13,31l.14-.86-.25-2m-2-7.95a2.5,2.5,0,0,0,.22,1.58c.38.77.85,1.49,1.27,2.25l.14-1.52L12,20.12M6.42,25.3l-.35.75a9.38,9.38,0,0,0,1.22,2.72,1.88,1.88,0,0,1-.43.87,9.14,9.14,0,0,0-1.57-.1L7.11,31,8,30.78l.9-.89-1.28-2L6.42,25.3M37.88,11.91a19.52,19.52,0,0,1,.8,4.89c0,2.09-.46,4.72-2.39,6-2.16,1.41-4.7.74-7.08.14l2.9,1.19,2.72.14,1.84-.55,1.44-1.19,1.08-2.28.41-2.63L39.27,15l-.59-2.55-.8-.57M5.59,16.86c-1,.64-1.37.92-1.26,2.1L4.62,20l.42.28.51.17.93-.22L7,18.78l-1.32.65H5.33L5,18.9l.41-.61.23-1.16.28.08.34.27,0-.61L6,16.48l-.23-.2-.15.58m22-9.34A17.84,17.84,0,0,1,30.27,10c.27.38.57.58,0,1.12a2.67,2.67,0,0,1,1.32-.09c.89.1,1.71,1.36,1.77,2.26,0,.08-.25.27-.93.46,0,0-.39,0-.38,0,.07.19.17.22.31.31a2,2,0,0,0,.2.79,6,6,0,0,1,1.27.12,1.19,1.19,0,0,1,.11.71l.49-.09c-.05-.37-.09-.74-.14-1.11l.44-.73-.63-1.41L32.9,11.2h-.11l-1.35-.83L29.25,8.58,27.63,7.52M29.1,14.2a1.65,1.65,0,0,1-.21.3,1.92,1.92,0,0,1,.68,1.06l-1.24.61-1,1a1.56,1.56,0,0,1-.79-.9,1.26,1.26,0,0,1-.71.05.62.62,0,0,0,.35-.11l.66-.69L28,14.63l.77-.25.36-.18"/><path class="cls-4" d="M30.23,15.43A6.83,6.83,0,0,0,27,18.17c0-1.69,1.7-2.44,3.22-2.74m-3.48-3.34a3.84,3.84,0,0,0-1.57,3.3,2.59,2.59,0,0,1,.76-3l.49-.24.32-.09"/><path d="M39.8,15.16a10.45,10.45,0,0,0-.87-3,1.35,1.35,0,0,0-.22-.28,2.12,2.12,0,0,0-.81-.49,1.18,1.18,0,0,0-.94,0,.62.62,0,0,0-.19.14,4.26,4.26,0,0,0-.48.62,3.13,3.13,0,0,1-.53.65,2.77,2.77,0,0,1-.79.43,5.52,5.52,0,0,0-.42-.8,7.27,7.27,0,0,0-.63-.86,3.78,3.78,0,0,0-.58-.55c-.2-.15-.41-.28-.65-.43a14.76,14.76,0,0,1-1.75-1.38l-.76-.66a6.67,6.67,0,0,0-3.91-1.71,9.75,9.75,0,0,0-4.37,1A6.44,6.44,0,0,0,20,9.06a11.42,11.42,0,0,0-1.36,1.59,2.34,2.34,0,0,0-.75.16,2.93,2.93,0,0,0-.85.56c-.23.2-.44.4-.66.61s-.39.38-.58.58a18.32,18.32,0,0,0-3.81.93,9.88,9.88,0,0,0-3.12,1.93,8.55,8.55,0,0,0-1.09,1.16A9.44,9.44,0,0,0,7,17.86c-.2.22-.4.45-.62.65a2.53,2.53,0,0,1-.7.45h0l-.22.09s0,0,0-.07a2,2,0,0,0,.46-1.38l.13.19.16.23.24.31.09-.39a2.75,2.75,0,0,0,0-1.15,1,1,0,0,0-.37-.62c0-.05,0-.1.05-.14s.13-.33.18-.48l.11-.31-.32.06a4.68,4.68,0,0,0-2,1.25,3.11,3.11,0,0,0-.58.81,1.55,1.55,0,0,0-.15.94,1.5,1.5,0,0,0,.44.8,4.93,4.93,0,0,0,.13.49,3,3,0,0,0,.18.45,1.35,1.35,0,0,0,.83.75,1.71,1.71,0,0,0,.9,0,8.22,8.22,0,0,0-.12,1.1,15.3,15.3,0,0,0,.06,1.73,4.83,4.83,0,0,0,.06.48c0,.14,0,.29.07.43s-.12.31-.17.47l-.27.72L5,26.31l-.54.54L4.32,27c-.36.35-.44.42-.33,1a3.82,3.82,0,0,0,1.12,2.13,5.2,5.2,0,0,0,1.68,1.13,2.29,2.29,0,0,0,1.14.15c0,.06,0,.12,0,.17s-.13.32-.2.48a1.22,1.22,0,0,0,.73,1.83,6.61,6.61,0,0,0,1.19.38l.26.07a11,11,0,0,0,2,.41c.81,0,1.55-.12,1.74-.84a4,4,0,0,0,.14-.73,3.59,3.59,0,0,0,0-.65,4.49,4.49,0,0,1,.5-.91l.08-.12a1.58,1.58,0,0,0,.3-.68,3.18,3.18,0,0,0,0-.73,1.23,1.23,0,0,1,0-.13,13.36,13.36,0,0,0,1.41.1l.71,0-.19.09-.08.05c-.63.32-.66.93-.46,1.56a6.44,6.44,0,0,0,.77,1.49A5.46,5.46,0,0,0,18.24,35a2,2,0,0,0,2.11-.07,1.71,1.71,0,0,0,.76-.8,3.49,3.49,0,0,1,.18-.31c.18-.12.63-.49,1.07-.86l.47-.38a1.3,1.3,0,0,0,.43.18,4.14,4.14,0,0,0,.8.1c.24,0,1,0,1.5,0h.36a2.52,2.52,0,0,0,1.24-.2,1.25,1.25,0,0,0,.57-1.12,1.49,1.49,0,0,0-.23-1.11c0-.26,0-.52,0-.78s0-.55,0-.83a4.08,4.08,0,0,0-.11-.84,5.73,5.73,0,0,0-.29-.81c-.07-.18-.15-.37-.22-.56l-.18.06h0l.15-.05h0a7.66,7.66,0,0,0-.36-.87l0-.19.29.28.42.41a5.29,5.29,0,0,0,1,.79,2.18,2.18,0,0,0,1.28.31,3.06,3.06,0,0,0,1.61-.61,2.69,2.69,0,0,0,1-1.31l.13-.45.11-.35a9,9,0,0,0,2.38.09,5.79,5.79,0,0,0,2.13-.62A5.3,5.3,0,0,0,39,22h0a8.15,8.15,0,0,0,1-3.3,14.17,14.17,0,0,0-.15-3.49Zm-9.89,8a5.43,5.43,0,0,1-1.14-.61,2.85,2.85,0,0,1,0,1.45c-.23.75-.58,2,.44,2.21A1.35,1.35,0,0,0,30.34,26a2.13,2.13,0,0,1-1,0,.62.62,0,0,1-.5-.44,1.63,1.63,0,0,0,.52.18A1.33,1.33,0,0,0,31,25a3.93,3.93,0,0,1,.24-.88l.48.13-.28.91a2.2,2.2,0,0,1-2,1.42,2.76,2.76,0,0,1-1.8-1l-1.07-.95a8.23,8.23,0,0,1-2.63-1.32,4.66,4.66,0,0,0,1.95,1.53,16.22,16.22,0,0,1-1,3.53A12.42,12.42,0,0,1,23,31.5c-.28.16-2,1.61-2.33,1.8s-.45.77-.81,1c-1.11.58-1.82-.54-2.41-1.48-.27-.43-1-1.67-.37-2a16.41,16.41,0,0,0,1.6-1c.09.17.25.33.36.5l-.07-.55a5,5,0,0,1,0-.95c0-.32.06-.65.08-1-.09.33-.28.67-.38,1,0,.13-.07.24-.09.34a11,11,0,0,1-4.24.05c-.09-.52-.21-1.07-.3-1.46,0,.44,0,1.65,0,2.33a1.7,1.7,0,0,1-.3,1.16A10.9,10.9,0,0,0,13,32.44a3.05,3.05,0,0,1-.09,1.17c-.2.71-2.2.16-2.72,0s-2-.44-1.65-1.31a11.22,11.22,0,0,0,.62-2.62,14.36,14.36,0,0,1-2.5-6.14A7.76,7.76,0,0,1,6.9,20a9.31,9.31,0,0,1,2.57-4,10,10,0,0,1,5.69-2.43c-.58.66-1.17,1.36-1.8,2.11A10.32,10.32,0,0,0,11.92,18a1.94,1.94,0,0,0,.2,2.58,6.89,6.89,0,0,1,1.27,2.1A4.3,4.3,0,0,0,13,24.21a4.56,4.56,0,0,0,2.14,1.64,2.79,2.79,0,0,0,2.05-.2c1.5-.76,2.88-1.75,4.56-1.79a8.6,8.6,0,0,0,.33-5.38,27.61,27.61,0,0,1-.44-3.75,9.13,9.13,0,0,0-.14,3.82c.29,1.6.51,3.36-.28,4.77-1.53.11-2.83,1-4.21,1.75a2.3,2.3,0,0,1-1.73.15A3.28,3.28,0,0,1,13.72,24a3,3,0,0,1,.47-1.67c.52-1,1.1-2,1.73-3A29.28,29.28,0,0,0,13.8,22a6.44,6.44,0,0,0-1.11-1.75,1.45,1.45,0,0,1-.2-1.89A8.55,8.55,0,0,1,13.93,16c1.19-1.29,2.29-2.72,3.59-4a2.6,2.6,0,0,1,1.93-.81c.85-.12,1.68-.29,2.54-.49-.83.08-1.64.11-2.46.13h0a5.76,5.76,0,0,1,2.57-2.16c3.2-1.39,5.24-1.54,7.76.57.65.55,1.22,1.09,1.88,1.56A2.27,2.27,0,0,0,31,11a3.17,3.17,0,0,1,1.06.06l.3.19a2.75,2.75,0,0,1,1,.86,10.06,10.06,0,0,1,.86,1.45l-.42-.15a.89.89,0,0,0-.84.06h0a4.62,4.62,0,0,1-.93.31,1.14,1.14,0,0,0,.58,0l.06,0a1.15,1.15,0,0,0-.12.37.92.92,0,0,0,.1.49h0a.54.54,0,0,0,.09.15l-.37.15a6.2,6.2,0,0,1,1.72,0c0,.19.07.38.11.58l-.22,0h0a1.12,1.12,0,0,0-1-.09c-1.27.29-1,1-1.56,2.09.61-.75.56-1.53,1.56-1.76a1.56,1.56,0,0,1,.54-.1,1.26,1.26,0,0,0-.62.65c-.27.77-.1,1.42-.4,2.14.37-.65.39-1.27.72-1.95a1.38,1.38,0,0,1,.84-.64h.22a6.47,6.47,0,0,1,.08,1.2,14.14,14.14,0,0,1-.31,2,6.27,6.27,0,0,0,.63-2,5.39,5.39,0,0,0,0-2.19c-.18-1,.84-.83,1.43-1.3.43-.34.73-.89,1.13-1.27s1,.18,1.17.55a13.74,13.74,0,0,1,.81,5.84,6.2,6.2,0,0,1-2.72,4.77c-2.08,1.16-4.52.45-6.58-.24ZM27,31.33c-.07.76-.32.81-1,.8-.3,0-1.51,0-1.82,0a1.76,1.76,0,0,1-.81-.18,10,10,0,0,0,2.06-3.28c.24-.75.5-1.4.7-2.1a9.17,9.17,0,0,0,.29.89,3.35,3.35,0,0,1,.34,1.39l.05,1.74a1,1,0,0,1,.18.77ZM6.45,25.57a16.07,16.07,0,0,0,2,4.2v0a1.69,1.69,0,0,1-.23.59c-.59.78-2.07-.37-2.5-.81A2.93,2.93,0,0,1,4.85,28c-.06-.39,0-.4.27-.67l1.09-1.11.24-.64Zm-.82-9.42a3.8,3.8,0,0,0-.24.61c-.24.8.1,1.52-.63,2.1.34.7.33,1,1.13.65a2.43,2.43,0,0,0,.78-.5c-.1.29-.21.57-.3.87,0,.05,0,.09,0,.14-.57.25-1.32.4-1.61-.2a5.28,5.28,0,0,1-.32-.95c-.94-1,.46-2.26,1.23-2.72Zm.46,1C6,17.07,5.88,17,5.73,17a2,2,0,0,1,0-.28,1,1,0,0,0,0-.14c.2.11.25.32.27.6Zm28.19-3.64c0,.07.07.15.11.23l-.08.06a1.15,1.15,0,0,0-.2-.29ZM7.14,18Zm7.23,11.79Zm8.47,2.53Zm3.44-6.55ZM5.73,19.14h0v0Zm33.06,2.72ZM2.41,18.91a5.07,5.07,0,0,1,1.68-3.7C2.58,16.27,2.2,16.75,2.41,18.9"/><path d="M2,17.52a3.5,3.5,0,0,1,.79-1.67A1.41,1.41,0,0,0,2,17.52M19.73,6.89c-.9.22-1.08.39-1.35,1.28a3.54,3.54,0,0,1,1.35-1.28"/><path d="M21.16,6.76c-1.8.44-2.33.76-2.92,2.84a5.07,5.07,0,0,1,2.92-2.84M25,14.34a3,3,0,0,1,1.85-2.29c-1.75.44-2.08,1.17-1.85,2.29m11.09.06a2.83,2.83,0,0,0,1.78-2.17A4.14,4.14,0,0,1,36,14.15a2,2,0,0,1-1.26.1,2,2,0,0,0,1.35.15m-7,.83a1.18,1.18,0,0,0-.66-.6,3.35,3.35,0,0,0,.7-.45c-.57.26-1.23.2-1.72.53s-1,1.21-1.46,1.6a3.55,3.55,0,0,0,.9-.56,1.18,1.18,0,0,0,.63,1,2.58,2.58,0,0,0-.38.69,6.73,6.73,0,0,1,3.17-2,3.08,3.08,0,0,0-1.07.18,1.27,1.27,0,0,0-.11-.38m-1.2,7.45-.13.82c.1-.28.23-.62.36-.9s.21-.31.49-.47.57-.26.77-.37l-.79.15c-.55.09-.61.22-.7.77m-9.41-9.85A10.36,10.36,0,0,0,17,16.49a12.86,12.86,0,0,1,1.69-3.25,2.45,2.45,0,0,1,.41-.29c-.43.72-.4.9-.25,1.87a3.79,3.79,0,0,1,1-2.09,15.23,15.23,0,0,0,1.81-.59c-.71.08-1.41.16-2.12.22a1.29,1.29,0,0,0-1.11.47"/><path class="cls-3" d="M27.18,16.52a.49.49,0,1,1,.89-.42l0,.07a2.8,2.8,0,0,0-.63.61.57.57,0,0,1-.29-.26m5.46-2.11a.36.36,0,0,1,.4-.34.37.37,0,0,1,.33.41.56.56,0,0,1,0,.12,3.11,3.11,0,0,0-.56.15.48.48,0,0,1-.13-.34"/></svg>