<?xml version="1.0" encoding="UTF-8"?>
<svg width="8px" height="13px" viewBox="0 0 8 13" version="1.1" xmlns="http://www.w3.org/2000/svg" xmlns:xlink="http://www.w3.org/1999/xlink">
    <!-- Generator: sketchtool 63.1 (101010) - https://sketch.com -->
    <title>73026483-7169-4CA6-B334-563B33290D4E@1.5x</title>
    <desc>Created with sketchtool.</desc>
    <g id="Page-1" stroke="none" stroke-width="1" fill="none" fill-rule="evenodd">
        <g id="004_create_new" transform="translate(-131.000000, -114.000000)">
            <g id="Breadcrunb" transform="translate(49.000000, 108.000000)">
                <g id="icon-caret-right" transform="translate(74.000000, 0.000000)">
                    <rect id="bounds" x="0" y="0" width="24" height="24"></rect>
                    <path d="M17.7940812,9.18323023 C17.4424627,8.8825106 17.0896181,9.04504427 16.8868854,9.24527574 L11.9968161,13.740553 L7.11722187,9.24527573 C6.93839231,9.08145209 6.49053328,8.81996721 6.16524043,9.18323023 C5.83994757,9.54649326 6.06520964,9.91610528 6.24327169,10.0799289 L11.6348225,15.8766027 C11.8136521,16.0411324 12.1060729,16.0411324 12.2849025,15.8766027 C12.2849025,15.8758965 17.7940809,10.079929 17.7940809,10.079929 C17.9792355,9.93504267 18.1456996,9.48394985 17.7940812,9.18323023 Z" id="Path" fill="#54595F" transform="translate(12.000000, 12.500000) scale(-1, 1) rotate(90.000000) translate(-12.000000, -12.500000) "></path>
                </g>
            </g>
        </g>
    </g>
</svg>