<svg id="Layer_1" data-name="Layer 1" xmlns="http://www.w3.org/2000/svg" viewBox="0 0 42 42"><defs><style>.cls-1{fill:none;}.cls-2{fill:#ea134b;fill-rule:evenodd;}.cls-3{fill:#00a9e6;}.cls-4{fill:#2e2e2e;}</style></defs><rect class="cls-1" width="42" height="42"/><path class="cls-2" d="M21.08,23.1h-1a11.49,11.49,0,0,1-3.46-.54,4,4,0,0,1-1-.46V24c.57.59,2.46,1.14,5,1.14s4.4-.55,5-1.14V22.1a4.24,4.24,0,0,1-1,.47,11.79,11.79,0,0,1-3.45.53"/><path class="cls-2" d="M15.6,19.49v1.87c.53.55,2.19,1.05,4.43,1.13H21.1c2.24-.08,3.9-.58,4.43-1.13V19.49a10,10,0,0,1-5,1,10,10,0,0,1-5-1"/><path class="cls-2" d="M25.5,18.23c-.22-.85-1.93-1.69-4.94-1.69s-4.7.84-4.93,1.69a.17.17,0,0,0,0,.1v.45c.57.59,2.45,1.13,5,1.13s4.4-.54,5-1.13v-.45a.17.17,0,0,0,0-.1"/><path class="cls-2" d="M15.6,24.68v1.63a.11.11,0,0,0,0,.08c.23,1,2.33,1.7,4.93,1.7s4.7-.72,4.94-1.69a.16.16,0,0,0,0-.09V24.68a9.26,9.26,0,0,1-5,1,9.24,9.24,0,0,1-5-1"/><path class="cls-3" d="M15.19,17.86c.25-.92,2.11-1.84,5.37-1.84,2.48,0,4.15.53,4.92,1.19.31-2.24-.9-4.71-4.22-5.64-1.3-3.09-3.26-4-6.6-3.34-4.07-4.07-9.13-1.3-9,4-4.32,3.43-2.29,9.29,2.6,9.29h6.86V18A.2.2,0,0,1,15.19,17.86Z"/><path class="cls-3" d="M25.68,9.72c-1.57-3.73-3.92-4.81-7.95-4C14.21,2.17,10.07,2.9,8.1,6c2-1.62,5-1.6,7.62,1,3.65-.71,5.79.27,7.21,3.66,5.39,1.51,5.68,6.7,3,9.32v1.62C31.71,20.54,33.24,11.84,25.68,9.72Z"/><path class="cls-4" d="M20.05,36.08a2.57,2.57,0,0,1-.65,2,2.81,2.81,0,0,1-1.91.57A2.31,2.31,0,0,1,15.65,38a2.8,2.8,0,0,1-.55-1.87V36H17v.38a1.27,1.27,0,0,0,.15.75.47.47,0,0,0,.76,0,1.27,1.27,0,0,0,.15-.75V30.68h2Z"/><path class="cls-4" d="M23.84,30.68a2.56,2.56,0,0,1,1.38.32,2.11,2.11,0,0,1,.75.87,3.89,3.89,0,0,1,.3,1.26c0,.47.05,1,.05,1.48s0,1-.05,1.47a3.89,3.89,0,0,1-.3,1.26,2.11,2.11,0,0,1-.75.87,2.56,2.56,0,0,1-1.38.32h-3V30.68Zm-.52,6.38a1.17,1.17,0,0,0,.47-.08.59.59,0,0,0,.27-.35,2.34,2.34,0,0,0,.12-.75c0-.32,0-.75,0-1.27s0-1,0-1.28a2.34,2.34,0,0,0-.12-.75.56.56,0,0,0-.27-.35,1.17,1.17,0,0,0-.47-.08h-.41v4.91Z"/><path class="cls-4" d="M30.34,30.68a2.21,2.21,0,0,1,1.62.53,2,2,0,0,1,.52,1.43,2.46,2.46,0,0,1-.07.6,1.73,1.73,0,0,1-.22.52,1.32,1.32,0,0,1-.38.4,1.51,1.51,0,0,1-.56.24v0a1.47,1.47,0,0,1,.66.2,1.42,1.42,0,0,1,.45.43,1.55,1.55,0,0,1,.26.55,2.13,2.13,0,0,1,.08.61,3.14,3.14,0,0,1-.13.94,1.87,1.87,0,0,1-.41.73,1.79,1.79,0,0,1-.73.48,3,3,0,0,1-1.09.17H27.25V30.68Zm-.55,3.08a.55.55,0,0,0,.48-.24.94.94,0,0,0,.17-.55,1,1,0,0,0-.17-.58.55.55,0,0,0-.48-.24h-.5v1.61Zm.08,3.3a.66.66,0,0,0,.5-.24,1,1,0,0,0,.22-.73,1,1,0,0,0-.22-.7.64.64,0,0,0-.5-.25h-.58v1.92Z"/><path class="cls-4" d="M36.5,32.15a.45.45,0,0,0-.43-.24.55.55,0,0,0-.37.12.82.82,0,0,0-.21.43,4.18,4.18,0,0,0-.09.83c0,.35,0,.79,0,1.32s0,1,0,1.31a4.18,4.18,0,0,0,.09.83.82.82,0,0,0,.21.43.55.55,0,0,0,.37.12.52.52,0,0,0,.31-.09.61.61,0,0,0,.18-.32,2.46,2.46,0,0,0,.1-.59q0-.36,0-.93h2V36a3.66,3.66,0,0,1-.22,1.35,2.18,2.18,0,0,1-.59.83,2,2,0,0,1-.83.41,4.34,4.34,0,0,1-1,.1,4,4,0,0,1-1.41-.21,1.77,1.77,0,0,1-.86-.69,3.45,3.45,0,0,1-.42-1.27,12.48,12.48,0,0,1-.12-1.87,11.4,11.4,0,0,1,.14-1.91,3.16,3.16,0,0,1,.47-1.26,1.81,1.81,0,0,1,.87-.7,3.66,3.66,0,0,1,1.33-.22,3.45,3.45,0,0,1,1.18.18,2,2,0,0,1,.78.5,2,2,0,0,1,.44.78,3.66,3.66,0,0,1,.14,1v.49h-2v-.43A2.14,2.14,0,0,0,36.5,32.15Z"/></svg>