<svg id="Layer_1" data-name="Layer 1" xmlns="http://www.w3.org/2000/svg" viewBox="0 0 42 42"><defs><style>.cls-1{fill:none;}.cls-2{fill:#a57242;}.cls-3,.cls-6{fill:#002b64;}.cls-3,.cls-5{fill-rule:evenodd;}.cls-4,.cls-5{fill:#c49a6c;}</style></defs><rect class="cls-1" width="42" height="42"/><g id="layer1"><g id="g3154"><g id="g4389"><g id="g4391"><path id="path4393" class="cls-2" d="M32.61,21.25v2.93h-.37v-.5a1.47,1.47,0,0,1-1.15.6A1.49,1.49,0,0,1,30,23.82a1.58,1.58,0,0,1,0-2.19,1.44,1.44,0,0,1,1.07-.46,1.38,1.38,0,0,1,1.17.61v-.53h.37m-.35,1.48a1.18,1.18,0,0,0-.33-.85,1.14,1.14,0,0,0-.83-.35,1.1,1.1,0,0,0-.83.36,1.2,1.2,0,0,0-.33.84,1.18,1.18,0,0,0,.34.85,1.15,1.15,0,0,0,1.64,0,1.17,1.17,0,0,0,.34-.86"/></g><g id="g4395"><path id="path4397" class="cls-2" d="M33.45,24.18v-4h.83a4.47,4.47,0,0,1,1.23.13,1.68,1.68,0,0,1,.69.39,1.83,1.83,0,0,1,.44.65,2.52,2.52,0,0,1,.15.91,2,2,0,0,1-.24,1,1.67,1.67,0,0,1-.65.69,2.49,2.49,0,0,1-1.18.23H33.45m.38-.38h.46a5.14,5.14,0,0,0,1-.07,1.27,1.27,0,0,0,.57-.28,1.5,1.5,0,0,0,.37-.52,1.86,1.86,0,0,0,.13-.7,1.72,1.72,0,0,0-.15-.72,1.52,1.52,0,0,0-.42-.55,1.49,1.49,0,0,0-.64-.28,5.6,5.6,0,0,0-1.07-.08h-.29v3.2"/></g><g id="g4399"><path id="path4401" class="cls-2" d="M28.34,20.43a.29.29,0,0,1,.09-.22.32.32,0,0,1,.22-.1.34.34,0,0,1,.32.32.32.32,0,0,1-.1.22.29.29,0,0,1-.22.09.28.28,0,0,1-.22-.1.29.29,0,0,1-.09-.21m.12.82h.38v2.93h-.38V21.25"/></g><g id="g4403"><path id="path4405" class="cls-2" d="M17.84,24.18l.56-4h.06l1.62,3.26,1.6-3.26h.06l.57,4h-.4l-.38-2.84-1.4,2.84H20l-1.42-2.86-.39,2.86h-.38"/></g><g id="g4407"><path id="path4409" class="cls-2" d="M25.93,21.25v2.93h-.37v-.5a1.47,1.47,0,0,1-1.15.6,1.49,1.49,0,0,1-1.09-.46,1.57,1.57,0,0,1-.44-1.1,1.48,1.48,0,0,1,.45-1.09,1.41,1.41,0,0,1,1.07-.46,1.37,1.37,0,0,1,1.16.61v-.53h.37m-.35,1.48a1.18,1.18,0,0,0-.33-.85,1.13,1.13,0,0,0-.83-.35,1.08,1.08,0,0,0-.82.36,1.22,1.22,0,0,0,0,1.69,1.15,1.15,0,0,0,1.64,0,1.17,1.17,0,0,0,.34-.86"/></g><g id="g4411"><path id="path4413" class="cls-2" d="M26.57,21.25H27v.42a1.39,1.39,0,0,1,.3-.38.49.49,0,0,1,.32-.12.76.76,0,0,1,.37.1l-.2.32a.37.37,0,0,0-.17-.05.43.43,0,0,0-.33.18,1.12,1.12,0,0,0-.22.45,4.62,4.62,0,0,0-.07,1v1h-.39V21.25"/></g><g id="g4415"><path id="path4417" class="cls-2" d="M37.62,20.21h.78a1.51,1.51,0,0,1,1,.26.83.83,0,0,1,.32.72.91.91,0,0,1-.13.48.87.87,0,0,1-.37.34,1.23,1.23,0,0,1,.61.4A1,1,0,0,1,40,23a1.06,1.06,0,0,1-.36.82,1.36,1.36,0,0,1-.93.32H37.62v-4m.39.39v1.27h.23A1.35,1.35,0,0,0,39,21.7a.57.57,0,0,0,.26-.51c0-.39-.27-.59-.8-.59H38m0,1.67v1.52h.49a1.88,1.88,0,0,0,.63-.08.86.86,0,0,0,.33-.27.66.66,0,0,0,.13-.37.73.73,0,0,0-.08-.33.7.7,0,0,0-.21-.25,1.08,1.08,0,0,0-.34-.17,3.71,3.71,0,0,0-.73-.05H38"/></g></g><g id="layer1-8"><g id="g3392"><path id="path9" class="cls-3" d="M18.52,15.39c-.26,0-.18.09-.75.23A11.11,11.11,0,0,0,15.9,16c-1.83.77-2.2,3.39-3.87,4.33a15.83,15.83,0,0,1-3.62,1.11A6.77,6.77,0,0,0,6.18,22.7c-.52.45-.53.85-1.08,1.41s-2.31,0-3.1.93c.25.26.36.33.86.27-.1.19-.71.36-.59.64s1.6.51,2.93-.3a5,5,0,0,1,2.09-1,15.94,15.94,0,0,1,4.16.31,6.89,6.89,0,0,1-1,1.59c-.11.11.21.12.58,0A5.75,5.75,0,0,0,12.68,26c.61-.36.71-1.28,1.46-1.48a1.69,1.69,0,0,0,2.27.29c-.62-.18-.79-1.5-.58-2.09s.39-1.43.59-2.16A12.28,12.28,0,0,1,17,18.36a5,5,0,0,1,1.2-1.14,1.71,1.71,0,0,0,.71-1.45.34.34,0,0,0-.37-.38Z"/><path id="path3352" class="cls-4" d="M2.54,25.9a3.75,3.75,0,0,0,2.3-.33,17.92,17.92,0,0,1,2.05-1.11c1.12-.37,2.36,0,3.57.07a5,5,0,0,0,.87,0c.45-.28.44-1.31.88-1.41A5,5,0,0,1,11,26.27a3.53,3.53,0,0,0,2.63-2,9.63,9.63,0,0,0,.42-1c.18.14.08.58.17.82A4.61,4.61,0,0,0,16,21.29a31.06,31.06,0,0,1,.82-3.1,3.43,3.43,0,0,1,1-.87,1.58,1.58,0,0,0,.82-1.12c-.42,0-.52-.13-.58-.35a1.34,1.34,0,0,1-.63.16,5.14,5.14,0,0,0-.66,0c-2.13.22-2.4,2.56-3.76,3.89l-.32.27A6.69,6.69,0,0,1,11,21c-.87.34-1.7.36-2.52.65a7.31,7.31,0,0,0-1.7.85c-.12.09-.24.17-.34.26a3.66,3.66,0,0,0-.67.77,5.29,5.29,0,0,1-.65.84c-.45.44-2.14.13-2.73.54a.38.38,0,0,0-.15.16c.32.15.54.06.91.1.05.36-.77.57-.65.73Z"/><path id="path3873" class="cls-5" d="M15.41,23.35a3.26,3.26,0,0,0,.47,1.41,1.45,1.45,0,0,1-1.29-.36C14.69,24,15.17,23.61,15.41,23.35Z"/><path id="path3880" class="cls-3" d="M16,16.91a.5.5,0,0,0,.82-.47C16.36,16.4,16.09,16.56,16,16.91Z"/><path id="path3882" class="cls-6" d="M18.11,16.3a1.59,1.59,0,0,0-.23.81c0,.08-.06.13-.06,0a1.52,1.52,0,0,1,.23-.83C18.11,16.19,18.14,16.23,18.11,16.3Z"/><path id="path3884" class="cls-6" d="M18,16.24a1.88,1.88,0,0,0-.36.88c0,.07-.07.11-.06,0a2,2,0,0,1,.36-.9C18,16.13,18.06,16.17,18,16.24Z"/><path id="path3886" class="cls-6" d="M18,16.15a2.58,2.58,0,0,0-.53.93c0,.07-.07.11-.05,0a2.26,2.26,0,0,1,.53-.95C18,16,18,16.09,18,16.15Z"/><path id="path3888" class="cls-6" d="M17.89,16.06a3.11,3.11,0,0,0-.68,1c0,.07-.09.1-.05,0a3.07,3.07,0,0,1,.68-1c.08-.08.1,0,.05,0Z"/></g></g></g></g></svg>