<svg id="Layer_1" data-name="Layer 1" xmlns="http://www.w3.org/2000/svg" viewBox="0 0 42 42"><defs><style>.cls-1{fill:none;}.cls-2{fill:#8e714e;}.cls-2,.cls-3,.cls-4,.cls-5,.cls-6,.cls-7{fill-rule:evenodd;}.cls-3{fill:#442d22;}.cls-4{fill:#fff;}.cls-5{fill:#a6a385;}.cls-6{fill:#499d4a;}.cls-7{fill:#58aa50;}</style></defs><rect class="cls-1" width="42" height="42"/><path class="cls-2" d="M37.42,20.06a.19.19,0,0,0-.07.13c0,.27,0,1,0,1.49a0,0,0,0,0,0,0l.56,0a1.31,1.31,0,0,0,.57-.09.73.73,0,0,0,.36-.68c0-.67-.47-.92-1.16-.92a1,1,0,0,0-.29,0Zm1.77,3.07c0-.68-.5-1.06-1.4-1.06h-.4s0,0,0,0c0,.49,0,1.26,0,1.56a.52.52,0,0,0,.23.37,1.52,1.52,0,0,0,.6.09.93.93,0,0,0,1-1ZM36,19.69c.07,0,.28,0,.81,0l1.38,0c.6,0,1.42.22,1.42,1.11a1.08,1.08,0,0,1-.71,1s0,0,0,0A1.23,1.23,0,0,1,40,23a1.43,1.43,0,0,1-1,1.33,3.2,3.2,0,0,1-1.27.22c-.35,0-1.29,0-1.81,0-.06,0,0-.27.09-.31a1.41,1.41,0,0,0,.35-.05c.19-.05.21-.11.24-.39s0-1.09,0-1.69c0-.83,0-1.39,0-1.67s-.08-.28-.23-.32L35.9,20s.08-.27.12-.29Zm-4,4.26a1.35,1.35,0,0,0,.77.19,1.54,1.54,0,0,0,1.1-.39,2.11,2.11,0,0,0,.62-1.65,2,2,0,0,0-.9-1.78,2.46,2.46,0,0,0-1.29-.3,1.09,1.09,0,0,0-.39.05.2.2,0,0,0-.06.11c0,.14,0,1.19,0,1.81s0,1.53,0,1.63a.4.4,0,0,0,.15.33Zm-1.56-4.26.87,0c.43,0,.74,0,1.56,0a2.53,2.53,0,0,1,1.67.53A2.23,2.23,0,0,1,35.37,22a2.3,2.3,0,0,1-.94,2,3.19,3.19,0,0,1-2,.56l-1.94,0h0c0-.06.05-.3.11-.31a1.29,1.29,0,0,0,.31-.06c.15-.06.17-.13.19-.39,0-.47,0-1,0-1.68,0-.46,0-1.36,0-1.65s-.12-.3-.33-.34a4.28,4.28,0,0,0-.43-.07s.1-.26.13-.3Z"/><path class="cls-3" d="M22.21,24.22a1.31,1.31,0,0,1-.44-.12.2.2,0,0,1-.06-.11c0-.24,0-.92,0-1.38a1.61,1.61,0,0,0-.22-.92.94.94,0,0,0-.8-.41,1.82,1.82,0,0,0-1,.49s-.06.06-.05,0,0-.23,0-.33a.21.21,0,0,0-.05-.14,4.59,4.59,0,0,1-1.06.27c-.17,0-.21.19,0,.25h0a1.38,1.38,0,0,1,.4.18.21.21,0,0,1,.07.19c0,.51,0,1.3,0,1.73,0,.18-.05.24-.18.26h0a2.18,2.18,0,0,1-.29.05.42.42,0,0,0,0,.31l.8,0c.45,0,.69,0,.8,0a.43.43,0,0,0,0-.31,1,1,0,0,1-.32-.05c-.12,0-.16-.08-.16-.23,0-.36,0-1.13,0-1.65A.31.31,0,0,1,19.7,22a1,1,0,0,1,.63-.24.72.72,0,0,1,.48.16.67.67,0,0,1,.22.43c0,.3,0,.88,0,1.39,0,.27,0,.34-.13.37a1.45,1.45,0,0,1-.31.07.35.35,0,0,0,0,.3l.77,0c.43,0,.7,0,.81,0a.41.41,0,0,0,0-.29Zm1.9-2.62c-.36,0-.59.28-.59.72s.2,1,.76,1a.51.51,0,0,0,.36-.14.9.9,0,0,0,.22-.63c0-.57-.28-.91-.75-.91Zm-.05,3a.53.53,0,0,0-.29.08c-.29.18-.42.36-.42.57a.63.63,0,0,0,.24.5,1.22,1.22,0,0,0,.82.25c.7,0,1-.38,1-.75a.53.53,0,0,0-.4-.53,2.83,2.83,0,0,0-1-.12Zm.05,1.78a1.56,1.56,0,0,1-1-.28.92.92,0,0,1-.36-.68.51.51,0,0,1,.14-.35,3.31,3.31,0,0,1,.63-.5l0,0s0,0,0,0a.66.66,0,0,1-.45-.43h0s0-.08.05-.12a1.22,1.22,0,0,1,.19-.13,3.4,3.4,0,0,0,.31-.2s0,0,0,0,0,0,0,0a1,1,0,0,1-.72-1,1,1,0,0,1,.44-.86,2,2,0,0,1,1-.34h0a2.12,2.12,0,0,1,.75.17,1.52,1.52,0,0,0,.45.07.63.63,0,0,0,.48-.18.38.38,0,0,1,0,.13.51.51,0,0,1-.09.32.39.39,0,0,1-.3.13h0a.69.69,0,0,1-.18,0l0,0a.08.08,0,0,0,0,0v0c0,.06,0,.24,0,.29a1.13,1.13,0,0,1-.47,1,1.6,1.6,0,0,1-.8.31H24c-.06,0-.2.08-.2.2s.07.22.36.24l.19,0a5.94,5.94,0,0,1,1.11.14.76.76,0,0,1,.51.73,1.48,1.48,0,0,1-1,1.27,2.19,2.19,0,0,1-.91.2ZM28,21.63a.65.65,0,0,0-.37.11,1,1,0,0,0-.4,1c0,.9.45,1.53,1.09,1.53a.7.7,0,0,0,.48-.16,1.24,1.24,0,0,0,.3-1c0-.89-.45-1.49-1.1-1.49Zm.12,2.94a1.51,1.51,0,0,1-1.58-1.66,1.49,1.49,0,0,1,.68-1.3,2.06,2.06,0,0,1,1.05-.31,1.47,1.47,0,0,1,1.51,1.55,1.57,1.57,0,0,1-.72,1.42,1.78,1.78,0,0,1-.94.3ZM15.93,21.63a.6.6,0,0,0-.37.11,1,1,0,0,0-.41,1c0,.9.45,1.53,1.1,1.53a.69.69,0,0,0,.47-.16,1.24,1.24,0,0,0,.3-1c0-.89-.44-1.49-1.09-1.49Zm.12,2.94a1.52,1.52,0,0,1-1.59-1.66,1.49,1.49,0,0,1,.68-1.3,2.09,2.09,0,0,1,1.05-.31,1.47,1.47,0,0,1,1.52,1.55A1.59,1.59,0,0,1,17,24.27a1.78,1.78,0,0,1-.94.3ZM8.21,24.5a.3.3,0,0,1,0-.16.19.19,0,0,1,0-.1l.3-.06a.24.24,0,0,0,.2-.28c0-.41,0-1.2,0-1.74h0A.2.2,0,0,0,8.65,22a1.57,1.57,0,0,0-.41-.18c-.06,0-.1-.06-.1-.1s0-.09.13-.1a5.07,5.07,0,0,0,1.05-.27.16.16,0,0,1,0,.11v.08a1.93,1.93,0,0,0,0,.25,0,0,0,0,0,.05.05h0a1.91,1.91,0,0,1,1-.47.89.89,0,0,1,.8.49s0,0,.05,0a0,0,0,0,0,0,0,2,2,0,0,1,1.08-.49c.63,0,1,.47,1,1.27,0,.23,0,.53,0,.79V24a.2.2,0,0,0,.12.16,1.54,1.54,0,0,0,.4.1h0a.45.45,0,0,1,0,.26h-.69l-.86,0a.76.76,0,0,1,0-.26l.26-.06c.14,0,.18-.1.18-.28s0-1.24,0-1.51a.68.68,0,0,0-.7-.6,1.22,1.22,0,0,0-.7.27.15.15,0,0,0,0,.07h0a2.82,2.82,0,0,1,0,.56v.44c0,.31,0,.6,0,.82a.2.2,0,0,0,.16.21l.11,0,.22.05a.43.43,0,0,1,0,.19.15.15,0,0,1,0,.07H10.29a.3.3,0,0,1,0-.14c0-.06,0-.11,0-.12h.09l.22,0c.12,0,.16-.1.17-.25a11.63,11.63,0,0,0,0-1.57.65.65,0,0,0-.67-.6,1.21,1.21,0,0,0-.7.27.21.21,0,0,0-.06.16V24a.22.22,0,0,0,.19.21l.16,0,.13,0a.78.78,0,0,1,0,.26H8.21Z"/><path class="cls-4" d="M4.6,26.15l-.28-.1s0-1.43-.48-1.54c-.34-.39.06-16.86,1.29-.05a1,1,0,0,0-.5.58,5.51,5.51,0,0,0,0,1.11Z"/><path class="cls-5" d="M4.6,26.15l-.28-.1s0-1.43-.48-1.54c-.34-.39.06-16.86,1.29-.05a1,1,0,0,0-.5.58,5.51,5.51,0,0,0,0,1.11Z"/><path class="cls-4" d="M4.76,24.76a5,5,0,0,0,1.88-5,7,7,0,0,0-2-3.56,3.33,3.33,0,0,1-.31-.61l.11,6.81s-.22,2.09.33,2.34"/><path class="cls-6" d="M4.76,24.76a5,5,0,0,0,1.88-5,7,7,0,0,0-2-3.56,3.33,3.33,0,0,1-.31-.61l.11,6.81s-.22,2.09.33,2.34"/><path class="cls-4" d="M4.18,24.85A5.31,5.31,0,0,1,2,20.5a5.85,5.85,0,0,1,2.07-4.39.62.62,0,0,0,.23-.52c.14.31.12,4.61.14,5.12A16.45,16.45,0,0,1,4.18,24.85Z"/><path class="cls-7" d="M4.18,24.85A5.31,5.31,0,0,1,2,20.5a5.85,5.85,0,0,1,2.07-4.39.62.62,0,0,0,.23-.52c.14.31.12,4.61.14,5.12A16.45,16.45,0,0,1,4.18,24.85Z"/></svg>