<svg id="Layer_1" data-name="Layer 1" xmlns="http://www.w3.org/2000/svg" viewBox="0 0 42 42"><defs><style>.cls-1{fill:none;}.cls-2{fill:#f80000;}</style></defs><rect class="cls-1" width="42" height="42"/><g id="layer1"><g id="g16337"><path id="path16197" class="cls-2" d="M17.82,21.72h2.42L19,19.66l-2.35,3.72H15.54l2.86-4.47a.67.67,0,0,1,.56-.29.66.66,0,0,1,.55.28l2.87,4.48H21.31l-.51-.83H18.35Zm11.11.83V18.66H28v4.27a.44.44,0,0,0,.13.32.49.49,0,0,0,.33.13h4.14l.53-.83Zm-15-.7a1.6,1.6,0,1,0,0-3.19h-4v4.72h.91V19.5h3a.76.76,0,0,1,0,1.52H11.29L14,23.38h1.32L13.5,21.85ZM4.36,23.38a2.36,2.36,0,0,1,0-4.72H7.1a2.36,2.36,0,1,1,0,4.72ZM7,22.55A1.53,1.53,0,1,0,7,19.5H4.42a1.53,1.53,0,1,0,0,3.05Zm17.23.83a2.36,2.36,0,0,1,0-4.72h3.26L27,19.5H24.33a1.53,1.53,0,1,0,0,3.05H27.6l-.53.83Zm11.1-.83a1.53,1.53,0,0,1-1.47-1.11h3.88l.53-.83H33.9a1.53,1.53,0,0,1,1.47-1.11H38l.54-.84H35.31a2.36,2.36,0,0,0,0,4.72h2.8l.53-.83H35.37"/><path id="path16199" class="cls-2" d="M39.05,19.16a.42.42,0,1,1,.42.42A.41.41,0,0,1,39.05,19.16Zm.42.54a.53.53,0,0,0,.53-.53.53.53,0,0,0-1.06,0A.53.53,0,0,0,39.47,19.7Zm0-.85a.44.44,0,0,1,.15,0,.16.16,0,0,1,.12.17.18.18,0,0,1,0,.05.16.16,0,0,1-.07.1h0l.13.25h-.13l-.12-.23h-.08v.23h-.12v-.6Zm0,.27s.08,0,.1,0a.11.11,0,0,0,0-.06.08.08,0,0,0,0-.07h-.14v.17h.07"/></g></g></svg>