<svg id="Layer_1" data-name="Layer 1" xmlns="http://www.w3.org/2000/svg" viewBox="0 0 42 42"><defs><style>.cls-1{fill:none;}.cls-2,.cls-4{fill:#62d05d;}.cls-3{fill:#050704;}.cls-4{stroke:#62d05d;stroke-linecap:round;stroke-linejoin:round;stroke-width:0.06px;}</style></defs><rect class="cls-1" width="42" height="42"/><g id="layer1"><path id="path8099" class="cls-2" d="M22.46,19.52a3.82,3.82,0,0,0-3.83,3.8h0a3.82,3.82,0,0,0,3.83,3.8h0a3.81,3.81,0,0,0,3.83-3.8h0a3.81,3.81,0,0,0-3.83-3.8Zm0,.69a3.11,3.11,0,0,1,3.12,3.1h0a3.11,3.11,0,0,1-3.12,3.1h0a3.11,3.11,0,0,1-3.12-3.1h0a3.11,3.11,0,0,1,3.12-3.1Z"/><g id="g8046"><path id="path8048" class="cls-3" d="M7.7,28.74a7.37,7.37,0,0,1-5.93-5.59,8.83,8.83,0,0,1,0-3.32,7.34,7.34,0,0,1,13.82-1.41,7.55,7.55,0,0,1,0,6.14,7.49,7.49,0,0,1-4.92,4.06A8.53,8.53,0,0,1,7.7,28.74Zm2.07-3.63c.83-1.31.82-1.27.5-1.95a3.79,3.79,0,0,0-1.33-1.35c-.43,0-1.58,1.45-1.58,2a2.14,2.14,0,0,0,.33.71c.18.28.51.8.75,1.16a3,3,0,0,0,.49.65,8.78,8.78,0,0,0,.84-1.21ZM6.48,23.25a4.58,4.58,0,0,1,.48-1,7.87,7.87,0,0,1,1.67-1.73l.31-.2.38.28a6,6,0,0,1,2.08,2.76,1.17,1.17,0,0,0,.17.43,17.81,17.81,0,0,0,2.31-1.16A4.79,4.79,0,0,0,13.13,21c-.14-.21-.47-.64-.74-1-.48-.59-.48-.59-.52-1.19l0-.59-.65,0-.66,0-.75-.51a4.77,4.77,0,0,0-.86-.51,4.42,4.42,0,0,0-.81.49l-.7.5-.72,0-.71,0,0,.63A1.28,1.28,0,0,1,5.49,20,6.42,6.42,0,0,0,4,22.56a16.41,16.41,0,0,0,2.28,1.22,1.46,1.46,0,0,0,.22-.53Z"/><path id="path8056" class="cls-4" d="M8.72,26c-.29-.39-1.07-1.61-1.21-1.89a1,1,0,0,1-.12-.37,2.72,2.72,0,0,1,.5-1,4.48,4.48,0,0,1,.88-.88.24.24,0,0,1,.27,0,4.21,4.21,0,0,1,1.25,1.4.79.79,0,0,1,0,.87,23.75,23.75,0,0,1-1.4,2.16A2.51,2.51,0,0,1,8.72,26Z"/><g id="text8060"><path id="path8158" class="cls-2" d="M21.91,18.16l-.23-.5H20.62l-.22.5h-.23L21,16.21h.23l.88,1.95Zm-1.2-.7h.89l-.45-1Z"/><path id="path8160" class="cls-2" d="M23.22,16.69a.75.75,0,0,1,.37.09.65.65,0,0,1,.25.27.79.79,0,0,1,.09.38.83.83,0,0,1-.09.39.67.67,0,0,1-.24.26.75.75,0,0,1-.37.09.74.74,0,0,1-.34-.08.59.59,0,0,1-.23-.24v.86h-.22v-2h.22V17a.59.59,0,0,1,.23-.24A.73.73,0,0,1,23.22,16.69Zm0,1.29a.51.51,0,0,0,.28-.07.44.44,0,0,0,.18-.2.53.53,0,0,0,.07-.28.51.51,0,0,0-.07-.28.39.39,0,0,0-.18-.2.51.51,0,0,0-.28-.07.52.52,0,0,0-.46.26.68.68,0,0,0-.06.29.64.64,0,0,0,.06.28.52.52,0,0,0,.19.2A.5.5,0,0,0,23.18,18Z"/><path id="path8162" class="cls-2" d="M25.22,18.16v-.22a.62.62,0,0,1-.53.23.6.6,0,0,1-.27-.06.44.44,0,0,1-.17-.16.4.4,0,0,1-.06-.22.37.37,0,0,1,.14-.31.69.69,0,0,1,.41-.11h.48v-.09a.36.36,0,0,0-.1-.26.45.45,0,0,0-.3-.09.82.82,0,0,0-.46.17l-.09-.15a1.3,1.3,0,0,1,.28-.15.8.8,0,0,1,.32,0,.56.56,0,0,1,.41.13.48.48,0,0,1,.15.37v1ZM24.73,18a.57.57,0,0,0,.32-.09.43.43,0,0,0,.17-.24v-.18h-.46c-.25,0-.37.08-.37.24a.25.25,0,0,0,.09.2.37.37,0,0,0,.25.07Z"/><path id="path8164" class="cls-2" d="M27,17.06a.54.54,0,0,0-1,.37.68.68,0,0,0,.06.29.58.58,0,0,0,.19.19.5.5,0,0,0,.27.07.75.75,0,0,0,.26-.05.45.45,0,0,0,.19-.14l.13.13a.79.79,0,0,1-.25.19.93.93,0,0,1-.34.06.79.79,0,0,1-.38-.09.72.72,0,0,1-.26-.26.83.83,0,0,1-.09-.39.79.79,0,0,1,.09-.38.75.75,0,0,1,.26-.27.79.79,0,0,1,.38-.09.83.83,0,0,1,.32.06.67.67,0,0,1,.25.16Z"/><path id="path8166" class="cls-2" d="M28.29,16.69a.56.56,0,0,1,.41.15.61.61,0,0,1,.14.42v.9h-.21v-.84a.4.4,0,0,0-.12-.31.37.37,0,0,0-.3-.11.45.45,0,0,0-.36.15.56.56,0,0,0-.14.39v.72H27.5V16.09h.21V17a.57.57,0,0,1,.58-.34Z"/><path id="path8168" class="cls-2" d="M29.91,16.69a.61.61,0,0,1,.52.22.88.88,0,0,1,.17.6H29.4a.53.53,0,0,0,.17.35.52.52,0,0,0,.36.13.53.53,0,0,0,.25,0,.48.48,0,0,0,.2-.14l.12.13a.61.61,0,0,1-.26.18.88.88,0,0,1-.33.06.79.79,0,0,1-.38-.09.72.72,0,0,1-.26-.26.83.83,0,0,1-.09-.39.79.79,0,0,1,.09-.38.75.75,0,0,1,.26-.27.79.79,0,0,1,.38-.09Zm.49.65a.48.48,0,0,0-.14-.34.54.54,0,0,0-.7,0,.5.5,0,0,0-.16.34Z"/></g><path id="path2429" class="cls-2" d="M8.88,17.15a2.86,2.86,0,0,0-.42.24c-.36.23-.7.49-1.06.73,0,0-.07,0-.1,0L6,18.21s0,.08,0,.12c0,.3,0,.6-.06.9a.88.88,0,0,1-.14.38c-.15.2-.32.38-.47.58a10.66,10.66,0,0,0-.86,1.25,6.4,6.4,0,0,0-.41.83.8.8,0,0,0,0,.26c0,.06.07.08.11.11.31.19.63.37,1,.54s.71.38,1.08.55a.38.38,0,0,0,.15.05s0-.05,0-.07c.12-.27.18-.55.3-.82A4.23,4.23,0,0,1,7.14,22a8.84,8.84,0,0,1,1-1.06,4.61,4.61,0,0,1,.6-.47l.23-.15a9.62,9.62,0,0,1,.8.63,7,7,0,0,1,1.19,1.4,4.48,4.48,0,0,1,.42.85,2.76,2.76,0,0,0,.19.55s0,.05.05,0a4.23,4.23,0,0,0,.58-.25c.5-.23,1-.48,1.46-.74a2.33,2.33,0,0,0,.26-.17,1,1,0,0,0-.09-.34,7.32,7.32,0,0,0-.52-1.05,8.35,8.35,0,0,0-.65-.91l-.52-.66a.9.9,0,0,1-.2-.43c0-.22,0-.44-.05-.66l0-.33h-.09l-1.22,0c-.38-.26-.75-.52-1.14-.77-.14-.08-.28-.17-.43-.24s0,0-.07,0Z"/></g><path id="path8097" class="cls-2" d="M27.72,27c0-.06,0-1.69,0-3.63l0-3.52h.72v1.72a3.63,3.63,0,0,1,2.71-1.79h.44v.7a3.13,3.13,0,0,0-3,2,10,10,0,0,0-.15,2.57l0,2-.34,0c-.22,0-.35,0-.38-.08Z"/><path id="path8099-3" class="cls-2" d="M35.27,19.52a3.81,3.81,0,0,0-3.83,3.8h0a3.81,3.81,0,0,0,3.83,3.8h0a3.82,3.82,0,0,0,3.16-1.66l-.58-.41a3.13,3.13,0,0,1-5.71-1.74h0a3.12,3.12,0,0,1,3.13-3.1h0a3.18,3.18,0,0,1,2.34,1.05l.56-.42A3.84,3.84,0,0,0,35.27,19.52Z"/><g id="text8137"><path id="path8171" class="cls-2" d="M38.42,19.26v.62H38.3v-.62h-.23v-.12h.58v.12Z"/><path id="path8173" class="cls-2" d="M38.9,19.88h-.12v-.74H39l.23.47.22-.47h.19v.74h-.12v-.57l-.26.51h-.07l-.26-.51Z"/></g></g></svg>