<svg id="Layer_1" data-name="Layer 1" xmlns="http://www.w3.org/2000/svg" viewBox="0 0 42 42"><defs><style>.cls-1{fill:none;}.cls-2{fill:#4b286d;}.cls-3{font-size:7px;fill:#fff;font-family:Helvetica-Bold, Helvetica;font-weight:700;}.cls-4{letter-spacing:-0.07em;}</style></defs><rect class="cls-1" width="42" height="42"/><path class="cls-2" d="M10.72,39.78A.78.78,0,0,1,9.93,39V32.07H3.57a.78.78,0,0,1-.78-.79V18.43a.78.78,0,0,1,.78-.78H9.93V3a.78.78,0,0,1,.79-.78H31.28a.79.79,0,0,1,.56.23L37,7.59a.78.78,0,0,1,.23.55V39a.78.78,0,0,1-.78.78Zm.78-1.56H35.64V8.47L31,3.78H11.5V17.65H40.28a.78.78,0,0,1,.79.78V31.28a.79.79,0,0,1-.79.79H11.5Z"/><text class="cls-3" transform="translate(4.87 27.55)"><tspan class="cls-4">P</tspan><tspan x="4.15" y="0">ARQUET</tspan></text></svg>