<svg id="Layer_1" data-name="Layer 1" xmlns="http://www.w3.org/2000/svg" viewBox="0 0 42 42"><defs><style>.cls-1,.cls-4,.cls-5{fill:none;}.cls-2{stroke:#000;stroke-width:3.43px;}.cls-3{fill:#336791;}.cls-4,.cls-5,.cls-6,.cls-7{stroke:#fff;}.cls-4,.cls-5{stroke-linecap:round;stroke-width:1.14px;}.cls-4{stroke-linejoin:round;}.cls-5{stroke-linejoin:bevel;}.cls-6,.cls-7{fill:#fff;}.cls-6{stroke-width:0.38px;}.cls-7{stroke-width:0.19px;}</style></defs><rect class="cls-1" width="42" height="42"/><g id="Layer_3"><path class="cls-2" d="M31.69,30.32c.26-2.17.18-2.49,1.79-2.14l.41,0a9.47,9.47,0,0,0,3.82-.64C39.77,26.62,41,25,39,25.45c-4.62.95-4.94-.61-4.94-.61C38.9,17.6,40.94,8.41,39.18,6.16,34.38,0,26.07,2.93,25.93,3h0a16.68,16.68,0,0,0-3.09-.32,7.67,7.67,0,0,0-4.88,1.46S3.1-2,3.79,11.83c.14,2.94,4.2,22.2,9,16.38,1.77-2.13,3.48-3.93,3.48-3.93a4.42,4.42,0,0,0,2.93.75l.08-.07a3.37,3.37,0,0,0,0,.83c-1.25,1.39-.88,1.64-3.38,2.15s-1,1.45-.07,1.69a5.13,5.13,0,0,0,5.72-1.86l-.07.29c.49.4.45,2.82.52,4.55a16.41,16.41,0,0,0,.54,4.29c.35,1,.77,3.41,4.05,2.7,2.73-.58,4.83-1.43,5-9.28"/><path class="cls-3" d="M39,25.45c-4.62.95-4.94-.61-4.94-.61C38.9,17.6,40.94,8.41,39.18,6.16,34.38,0,26.07,2.93,25.93,3h0a16.68,16.68,0,0,0-3.09-.32,7.67,7.67,0,0,0-4.88,1.46S3.1-2,3.79,11.83c.14,2.94,4.2,22.2,9,16.38,1.77-2.13,3.48-3.93,3.48-3.93a4.42,4.42,0,0,0,2.93.75l.08-.07a3.37,3.37,0,0,0,0,.83c-1.25,1.39-.88,1.64-3.38,2.15s-1,1.45-.07,1.69a5.13,5.13,0,0,0,5.72-1.86l-.07.29c.49.4.83,2.55.77,4.5a12.19,12.19,0,0,0,.29,4.34c.38,1.05.77,3.41,4.05,2.7C29.4,39,30.82,37.5,31,35c.14-1.8.46-1.54.48-3.15l.25-.76c.29-2.45.05-3.23,1.73-2.87l.41,0a9.47,9.47,0,0,0,3.82-.64C39.77,26.62,41,25,39,25.45Z"/><path class="cls-4" d="M21.83,26.85c-.13,4.55,0,9.13.48,10.24A3.65,3.65,0,0,0,27,39.67c2.74-.59,3.73-1.73,4.17-4.23.32-1.85.93-7,1-8"/><path class="cls-4" d="M17.9,4.05S3.06-2,3.75,11.77C3.9,14.71,8,34,12.8,28.15c1.77-2.12,3.37-3.79,3.37-3.79"/><path class="cls-4" d="M25.91,2.94c-.51.16,8.26-3.2,13.24,3.16,1.76,2.25-.28,11.44-5.16,18.68"/><path class="cls-5" d="M34,24.78s.32,1.57,4.94.61c2-.42.81,1.17-1.25,2.13-1.68.78-5.46,1-5.52-.1-.16-2.79,2-1.94,1.83-2.64s-1.1-1.25-1.73-2.79c-.56-1.34-7.61-11.65,2-10.12.35-.07-2.49-9.09-11.44-9.24s-8.65,11-8.65,11"/><path class="cls-4" d="M19.32,25.73c-1.24,1.4-.88,1.64-3.37,2.15s-1,1.45-.07,1.69a5.11,5.11,0,0,0,5.72-1.86,1.71,1.71,0,0,0-.77-2.34,1.13,1.13,0,0,0-1.51.36Z"/><path class="cls-4" d="M19.24,25.71a6.69,6.69,0,0,1,.69-2.93c.64-1.72,2.11-3.43.93-8.85-.87-4-6.74-.85-6.74-.3A28.48,28.48,0,0,1,14,19c-.47,3.39,2.16,6.26,5.19,6"/><path class="cls-6" d="M17.85,13.55c0,.19.34.69.82.75a.89.89,0,0,0,.92-.51c0-.18-.34-.39-.83-.46s-.89,0-.91.22Z"/><path class="cls-7" d="M32.49,13.17c0,.19-.34.69-.82.75a.87.87,0,0,1-.92-.51c0-.19.34-.39.82-.46s.89,0,.92.22Z"/><path class="cls-4" d="M34.21,11.87c.08,1.47-.32,2.47-.37,4-.07,2.27,1.09,4.87-.66,7.48"/></g></svg>