<svg id="Layer_1" data-name="Layer 1" xmlns="http://www.w3.org/2000/svg" viewBox="0 0 42 42"><defs><style>.cls-1{fill:#0f9bd7;}.cls-2,.cls-3{fill:#fff;}.cls-3{fill-rule:evenodd;}.cls-4{fill:none;}</style></defs><path class="cls-1" d="M17.81,10.6A6.66,6.66,0,0,1,28.49,12a8.25,8.25,0,1,1,3.32,15.82,8,8,0,0,1-1.62-.16,6,6,0,0,1-7.84,2.47,6.83,6.83,0,0,1-12.7-.31A6.26,6.26,0,0,1,8.34,30,6.42,6.42,0,0,1,5.17,18a7.38,7.38,0,0,1,12.64-7.4"/><path class="cls-2" d="M7.5,21.49c0,.07,0,.08,0,.09l.22.13A2.24,2.24,0,0,0,8.87,22c.78,0,1.27-.42,1.27-1.09h0c0-.62-.55-.84-1.06-1l-.07,0c-.39-.13-.72-.24-.72-.49h0c0-.22.2-.38.5-.38a2.3,2.3,0,0,1,1,.25s.07.05.1,0,.15-.39.16-.43a.08.08,0,0,0,0-.09,2.18,2.18,0,0,0-1.11-.3H8.81A1.08,1.08,0,0,0,7.6,19.44h0c0,.65.55.87,1.06,1l.08,0c.38.11.7.21.7.48h0c0,.24-.21.42-.55.42a1.8,1.8,0,0,1-1-.29L7.76,21s-.08,0-.1,0Z"/><path class="cls-2" d="M18.91,21.49c0,.07,0,.08,0,.09l.22.13a2.26,2.26,0,0,0,1.13.27c.78,0,1.27-.42,1.27-1.09h0c0-.62-.55-.84-1.06-1l-.07,0c-.38-.13-.72-.24-.72-.49h0c0-.22.2-.38.5-.38a2.26,2.26,0,0,1,1,.25s.08.05.1,0,.15-.39.16-.43,0-.07,0-.09a2.16,2.16,0,0,0-1.11-.3h-.08A1.09,1.09,0,0,0,19,19.44h0c0,.65.55.87,1.06,1l.08,0c.38.11.7.21.7.48h0c0,.24-.21.42-.55.42a1.8,1.8,0,0,1-1-.29L19.17,21a.07.07,0,0,0-.1,0Z"/><path class="cls-2" d="M27.36,19.49a1.72,1.72,0,0,0-.3-.57,1.36,1.36,0,0,0-.5-.38,1.68,1.68,0,0,0-.7-.14,1.71,1.71,0,0,0-.7.14,1.49,1.49,0,0,0-.79.95,2.57,2.57,0,0,0-.1.7,2.63,2.63,0,0,0,.1.7,1.45,1.45,0,0,0,.3.56,1.36,1.36,0,0,0,.5.38,1.63,1.63,0,0,0,.69.13,1.68,1.68,0,0,0,.7-.13,1.36,1.36,0,0,0,.5-.38,1.77,1.77,0,0,0,.3-.56,2.63,2.63,0,0,0,.09-.7,2.58,2.58,0,0,0-.09-.7m-.65.7a1.68,1.68,0,0,1-.21.88.71.71,0,0,1-.64.31.69.69,0,0,1-.63-.31,1.69,1.69,0,0,1-.2-.88,1.64,1.64,0,0,1,.2-.88.69.69,0,0,1,.63-.31.71.71,0,0,1,.64.31,1.63,1.63,0,0,1,.21.88"/><path class="cls-3" d="M32.7,21.28a.06.06,0,0,0-.08,0,1.58,1.58,0,0,1-.31.09l-.35,0a1,1,0,0,1-.75-.28,1.23,1.23,0,0,1-.28-.89,1.36,1.36,0,0,1,.25-.85A.85.85,0,0,1,31.9,19a2.09,2.09,0,0,1,.69.1s0,0,.08-.05l.16-.44c0-.05,0-.07,0-.08a2.81,2.81,0,0,0-.44-.11,3.43,3.43,0,0,0-.48,0,1.83,1.83,0,0,0-.73.14,1.43,1.43,0,0,0-.52.38,1.64,1.64,0,0,0-.32.56,2.28,2.28,0,0,0-.11.7,1.88,1.88,0,0,0,.44,1.3,1.63,1.63,0,0,0,1.28.48,2.8,2.8,0,0,0,.92-.16.06.06,0,0,0,0-.08Z"/><path class="cls-3" d="M36,19.36a1.52,1.52,0,0,0-.28-.51,1.42,1.42,0,0,0-.42-.32,1.57,1.57,0,0,0-.63-.13,1.79,1.79,0,0,0-.73.14,1.65,1.65,0,0,0-.51.39,1.72,1.72,0,0,0-.3.57,2.71,2.71,0,0,0-.09.71,2.24,2.24,0,0,0,.1.7,1.37,1.37,0,0,0,.32.56,1.44,1.44,0,0,0,.55.37,2.14,2.14,0,0,0,.8.12A2.23,2.23,0,0,0,36,21.74s0,0,0-.1l-.15-.4a.06.06,0,0,0-.08,0,2.13,2.13,0,0,1-.9.16,1.05,1.05,0,0,1-.76-.26,1,1,0,0,1-.25-.73H36a.06.06,0,0,0,.06-.06,2.18,2.18,0,0,0-.06-.95m-2.19.47a1.23,1.23,0,0,1,.18-.52.69.69,0,0,1,.63-.32.68.68,0,0,1,.61.32,1.1,1.1,0,0,1,.15.52Z"/><path class="cls-3" d="M18.39,19.36a1.52,1.52,0,0,0-.28-.51,1.42,1.42,0,0,0-.42-.32,1.57,1.57,0,0,0-.63-.13,1.79,1.79,0,0,0-.73.14,1.65,1.65,0,0,0-.51.39,1.72,1.72,0,0,0-.3.57,2.71,2.71,0,0,0-.09.71,2.24,2.24,0,0,0,.1.7,1.49,1.49,0,0,0,.32.56,1.44,1.44,0,0,0,.55.37,2.14,2.14,0,0,0,.8.12,2.23,2.23,0,0,0,1.11-.22s.05,0,0-.1l-.15-.4a.06.06,0,0,0-.08,0,2.13,2.13,0,0,1-.9.16,1.05,1.05,0,0,1-.76-.26,1,1,0,0,1-.25-.73h2.2a.06.06,0,0,0,.06-.06,2.18,2.18,0,0,0-.06-.95m-2.19.47a1.23,1.23,0,0,1,.18-.52A.69.69,0,0,1,17,19a.67.67,0,0,1,.61.32,1.1,1.1,0,0,1,.15.52Z"/><path class="cls-2" d="M12.31,19.72H12a1.9,1.9,0,0,0-.54.07A1.5,1.5,0,0,0,11,20a1,1,0,0,0-.32.37,1,1,0,0,0-.12.5,1.13,1.13,0,0,0,.1.51.87.87,0,0,0,.29.34,1.16,1.16,0,0,0,.45.2A3.39,3.39,0,0,0,12,22a3.71,3.71,0,0,0,.67-.05l.55-.11.16,0c.05,0,.05-.07.05-.07v-2a1.26,1.26,0,0,0-.35-1,1.5,1.5,0,0,0-1-.3,3.81,3.81,0,0,0-.59.05,2.21,2.21,0,0,0-.68.25.07.07,0,0,0,0,.09l.15.42c0,.05.08,0,.08,0h0A2.29,2.29,0,0,1,12,19a1,1,0,0,1,.55.14.61.61,0,0,1,.18.53v.09l-.37,0m-.87,1.55a.5.5,0,0,1-.13-.13.59.59,0,0,1-.07-.29.51.51,0,0,1,.2-.43,1,1,0,0,1,.64-.16,5,5,0,0,1,.6.06v1a4.59,4.59,0,0,1-.6.08,1,1,0,0,1-.64-.13"/><path class="cls-3" d="M30.08,18.58a.06.06,0,0,0,0-.07,1.61,1.61,0,0,0-.37-.07,1.2,1.2,0,0,0-.57.09,1.07,1.07,0,0,0-.37.28v-.27a.07.07,0,0,0-.07-.07h-.56a.07.07,0,0,0-.07.07v3.29a.07.07,0,0,0,.07.06h.58a.07.07,0,0,0,.07-.06V20.18a1.8,1.8,0,0,1,.07-.57.87.87,0,0,1,.19-.33.61.61,0,0,1,.28-.16,1.06,1.06,0,0,1,.29,0,1.14,1.14,0,0,1,.24,0,.08.08,0,0,0,.08-.06c0-.1.15-.41.17-.47"/><path class="cls-3" d="M24.65,17.06l-.22,0-.3,0a1.26,1.26,0,0,0-.93.33,1.86,1.86,0,0,0-.45,1l0,.15h-.5a.09.09,0,0,0-.08.06l-.08.46c0,.05,0,.07.07.07h.49l-.49,2.76a3.46,3.46,0,0,1-.14.54,1,1,0,0,1-.15.32.43.43,0,0,1-.2.15.75.75,0,0,1-.26,0l-.18,0-.12,0a.06.06,0,0,0-.08,0s-.14.4-.16.44,0,.08,0,.09l.2.06a1.23,1.23,0,0,0,.32,0,1.75,1.75,0,0,0,.54-.08,1.14,1.14,0,0,0,.41-.29,1.46,1.46,0,0,0,.28-.49,4.56,4.56,0,0,0,.2-.74l.49-2.81h.73a.06.06,0,0,0,.07-.06l.08-.46s0-.07-.07-.07h-.7a2.51,2.51,0,0,1,.11-.5.59.59,0,0,1,.16-.23.52.52,0,0,1,.18-.12.88.88,0,0,1,.24,0l.18,0,.11,0c.07,0,.08,0,.1,0l.17-.46a.08.08,0,0,0,0-.08"/><path class="cls-3" d="M14.81,21.83a.07.07,0,0,1-.07.06h-.58a.06.06,0,0,1-.06-.06V17.12a.06.06,0,0,1,.06-.06h.58a.07.07,0,0,1,.07.06Z"/><rect class="cls-4" width="42" height="42"/></svg>