<svg id="Layer_1" data-name="Layer 1" xmlns="http://www.w3.org/2000/svg" xmlns:xlink="http://www.w3.org/1999/xlink" viewBox="0 0 42 42"><defs><style>.cls-1{fill:none;}.cls-2{fill:url(#linear-gradient);}.cls-3{fill:url(#linear-gradient-2);}.cls-4{fill:url(#radial-gradient);}.cls-5{fill:#231f1f;}</style><linearGradient id="linear-gradient" x1="-5718.63" y1="-8063.24" x2="-5705.85" y2="-8070.79" gradientTransform="translate(697.84 981.93) scale(0.12)" gradientUnits="userSpaceOnUse"><stop offset="0" stop-color="#909ca9"/><stop offset="1" stop-color="#ededee"/></linearGradient><linearGradient id="linear-gradient-2" x1="-5718.34" y1="-8205.56" x2="-5708.06" y2="-8205.56" gradientTransform="translate(697.84 981.93) scale(0.12)" gradientUnits="userSpaceOnUse"><stop offset="0" stop-color="#939fab"/><stop offset="1" stop-color="#dcdee1"/></linearGradient><radialGradient id="radial-gradient" cx="-9410.61" cy="-6468.43" r="13.65" gradientTransform="matrix(-0.11, -0.02, 0.03, -0.23, -823.92, -1623.05)" gradientUnits="userSpaceOnUse"><stop offset="0" stop-color="#ee352c"/><stop offset="1" stop-color="#a91d22"/></radialGradient></defs><rect class="cls-1" width="42" height="42"/><path class="cls-2" d="M27.76,15.42l-4.19,1.37L19.92,18.4l-1,.27c-.26.25-.53.5-.82.75s-.63.54-.86.72a5.43,5.43,0,0,0-.83.83,3.68,3.68,0,0,0-.62,1A1.75,1.75,0,0,0,16,23.58,5.58,5.58,0,0,0,18.3,25.3a14.94,14.94,0,0,0,2,.67,26.68,26.68,0,0,0,4.3.62,4.78,4.78,0,0,0,.56,0s.2-.36.41-.78a19.59,19.59,0,0,0,1.48-3.94,18.13,18.13,0,0,0,.39-2.72c0-.31,0-1.34,0-1.69A11.94,11.94,0,0,0,27.31,16c0-.07,0-.13,0-.13l.57-.17-.11-.25Zm-1,.56A12.82,12.82,0,0,1,27,17.57a1.3,1.3,0,0,1,0,.22s-.54-.3-.9-.53-.92-.6-1-.68,0,0,.23-.11C25.72,16.32,26.77,16,26.81,16Zm-2.14.71a.93.93,0,0,1,.27.15,20.27,20.27,0,0,0,1.93,1.07c.11.05.13,0-.14.21a14.32,14.32,0,0,1-2.18,1.17l-.29.12s0-.07,0-.17A9.69,9.69,0,0,0,24.64,17c0-.32,0-.32,0-.33s0,0,0,0Zm-.44.17a7.69,7.69,0,0,1,0,.92,9.2,9.2,0,0,1-.29,1.38,1.69,1.69,0,0,1-.08.22,6.68,6.68,0,0,1-.59-.57,4.44,4.44,0,0,1-.58-.85,3.36,3.36,0,0,1-.18-.44c.05,0,1.72-.68,1.74-.66Zm-2.08.81h0a.52.52,0,0,1,.05.12,4.23,4.23,0,0,0,.53.94,4.65,4.65,0,0,0,.73.79l.15.13s0,0-.49.22-1.25.45-2,.69l-.54.18s0,0,.07-.14a18.49,18.49,0,0,0,1.25-2.52c.05-.14.11-.28.12-.31s0-.06.07-.09Zm-.63.26a5.9,5.9,0,0,1-.31.66c-.31.6-.65,1.19-1.1,1.91-.07.12-.15.23-.16.25s0,0-.07-.09a2.51,2.51,0,0,1-.24-.73,3,3,0,0,1,0-.95c0-.19,0-.19.14-.24.4-.2,1.71-.82,1.73-.81Zm5.47.23v.13a17.23,17.23,0,0,1-.19,2.38,1.21,1.21,0,0,1,0,.23l-.2,0a8.36,8.36,0,0,1-1.46-.63,6.38,6.38,0,0,1-.74-.46l.29-.15a18.6,18.6,0,0,0,1.74-1l.55-.4,0,0Zm-7.87.93s0,0,0,.14,0,.24,0,.34a2.3,2.3,0,0,0,.28,1.28l.11.24s-2.12.63-2.78.81l-.38.11s0,0,0-.05a3.31,3.31,0,0,1,.92-1.59,4.28,4.28,0,0,1,1.05-.8c.32-.18.82-.46.86-.47Zm4.95.89.17.09a9.91,9.91,0,0,0,2.43.95h.07l-.1.06c-.42.23-1.8.81-3.22,1.34L23,22.6l-.07,0s.05-.11.13-.25a17.6,17.6,0,0,0,1-2.27l0-.12Zm-.5.16-.06.15a19.67,19.67,0,0,1-1.1,2.22c-.12.21-.21.38-.22.38L22,22.76a6.55,6.55,0,0,1-1.66-1.41l-.06-.07.29-.08a20.67,20.67,0,0,0,2.79-1Zm3.13,1.1h0c0,.07-.16.73-.29,1.2s-.21.71-.38,1.25c-.08.24-.14.44-.15.44h0a13.67,13.67,0,0,1-2.58-.73c-.22-.09-.54-.23-.56-.25l.43-.2c1.44-.63,2.94-1.35,3.45-1.65l.12-.06Zm-7.23.25s-.4.58-1,1.37c-.19.28-.42.6-.51.72L17.7,24l-.13.2-.14-.12a4.77,4.77,0,0,1-.59-.6,2.64,2.64,0,0,1-.53-1c0-.16,0-.23,0-.24l1.68-.4,1.14-.26.34-.08Zm.4.15.1.12A6.09,6.09,0,0,0,21.46,23l.17.11s-2,.71-2.86,1l-.92.32-.06,0-.06,0,.09-.14c.3-.43.67-.9,1.49-1.88l.56-.68Zm2.53,1.81.32.11a9.36,9.36,0,0,0,1.17.37,12.83,12.83,0,0,0,1.78.31c.07,0,.11,0,.1,0s-.49.17-.83.27c-.55.18-2.21.67-3.57,1.06l-.48.13a.26.26,0,0,1-.14,0,1.6,1.6,0,0,1,.17-.21,19.06,19.06,0,0,0,1.29-1.74c.1-.15.19-.28.19-.29Zm-.56,0s-.22.36-.61,1l-.42.66c-.07.1-.16.26-.22.35l-.09.16h-.05c-.11,0-.91-.31-1.12-.4a7.54,7.54,0,0,1-.74-.34,3.06,3.06,0,0,1-.55-.35l1-.26,2.66-.75.17-.05Zm3.95.92h0s-.5,1.46-.69,1.91c0,.11-.06.13-.08.13l-1.25-.18c-.79-.12-2.12-.35-2.45-.42l-.08,0,.47-.11c1-.23,1.51-.35,2-.5a13.83,13.83,0,0,0,1.87-.72l.2-.09Z"/><path class="cls-3" d="M23.44,5.64c-.07,0-1.2.4-1.93.69A12,12,0,0,0,19.3,7.44a1.5,1.5,0,0,0-.42.43.2.2,0,0,0,0,.11l.42.4,1,.32,2.41.43,2.75.48,0-.24h0l-.36-.06L25,9.18c-.37-.66-.78-1.48-1-2a11.93,11.93,0,0,1-.46-1.28c-.05-.22-.06-.23-.09-.23Zm-.05.16h0s0,.09,0,.2a6.08,6.08,0,0,0,.31,1.33c.11.35.11.33,0,.29-.33-.09-1.78-.34-2.83-.48l-.31,0s.76-.42,1.1-.58,1.63-.69,1.72-.71ZM20.33,7.22l.12,0a19,19,0,0,0,3.3.63l.19,0-.2.1c-.45.23-.94.51-1.28.72l-.21.11-.15,0L22,8.8l-.31-.31L20.49,7.37Zm-.13.1.45.56c.24.31.49.61.54.67l.1.13s-.65-.12-1-.19-.49-.12-.71-.19l-.17-.05V8.2c0-.21.27-.53.73-.85l0,0Zm3.8.76s0,0,.07.12.44.87.52,1,.07,0-.37,0L22.8,8.93l.07,0a5.6,5.6,0,0,0,1-.67L24,8.09Z"/><path class="cls-4" d="M18.9,7.82a.34.34,0,0,0,0,.28,1.48,1.48,0,0,0,.3.35S20.6,9.83,20.78,10a4.43,4.43,0,0,1,1.15,3,4.86,4.86,0,0,1-.5,2.28,14.87,14.87,0,0,1-4.2,4.79l.31-.1a9.24,9.24,0,0,1,1.13-.67A40.45,40.45,0,0,1,23.9,17a65.42,65.42,0,0,1,10.63-2.84l.29-.05,0-.07c-.26-.39-.43-.64-.64-.9a7.78,7.78,0,0,0-2.25-1.87A16.91,16.91,0,0,0,27,9.62c-.39-.08-1.23-.22-1.91-.33-1.46-.22-2.4-.38-3.43-.56-.37-.06-.93-.15-1.29-.23a7.36,7.36,0,0,1-.84-.23c-.23-.09-.56-.18-.63-.45Zm.82.8.12,0,.46.14.41.11c.2,0,.35.09.36.09s.34,1,.45,1.44l.07.27s0-.05-.08-.12a6.59,6.59,0,0,0-1.64-1.85,1.08,1.08,0,0,1-.15-.12Zm1.56.43.17,0c.54.12,1.5.3,2.12.41a.46.46,0,0,1,.19,0l-.09.05L23,10a6.58,6.58,0,0,0-.9.72l-.17.17,0-.12a10.1,10.1,0,0,0-.56-1.56l-.07-.14ZM24,9.57a1.51,1.51,0,0,1,.12.35,5.49,5.49,0,0,1,.15,1.46c0,.13,0,.25,0,.27v0l-.16,0-1.37-.41-.49-.14a7.75,7.75,0,0,1,.57-.56c.32-.28,1.18-1,1.21-.95Zm.22,0s1.32.22,1.91.33,1.08.22,1.12.24-.05,0-.26.14a13.31,13.31,0,0,0-2.08,1.13l-.3.19s0-.09,0-.2a4.43,4.43,0,0,0-.34-1.72Zm3.37.67a2.15,2.15,0,0,1-.07.42,7.71,7.71,0,0,1-.8,1.83,1.48,1.48,0,0,1-.13.22l-.19-.1A10.23,10.23,0,0,0,25.18,12l-.24-.11s1-.69,1.54-1,1.12-.64,1.13-.63Zm.24,0,.91.25a17.12,17.12,0,0,1,2.16.79l.23.1-.16,0a23.17,23.17,0,0,0-3.66,1.13l-.18.07.07-.16a6.3,6.3,0,0,0,.61-2.11l0-.11Zm-5.74,1.32a6,6,0,0,1,.69.16,11.06,11.06,0,0,1,1.12.38l-.18.16c-.42.35-.82.71-1.3,1.18l-.27.24a0,0,0,0,1,0,0,7.34,7.34,0,0,0-.05-1.91A.56.56,0,0,1,22.11,11.63Zm9.26,0s-.2.33-.33.52-.47.63-1.1,1.43l-.84,1.05-.23.29-.09-.13a6.62,6.62,0,0,0-1.28-1.42l-.24-.19-.06,0,.95-.41c.71-.29,1.69-.64,2.42-.86l.8-.23Zm.25.06.18.09a11,11,0,0,1,2.12,1.59l.58.6-.32,0a30.5,30.5,0,0,0-4.69.78l-.21,0a2.76,2.76,0,0,1,.27-.27A8.12,8.12,0,0,0,31.47,12c.08-.16.14-.29.15-.3Zm-7.07.72c.05,0,.46.21.77.36s.71.37.74.39l-.34.18c-.6.29-1.11.58-1.64.9l-.28.17s0,0,.07-.17a6.44,6.44,0,0,0,.65-1.75s0-.08,0-.08Zm-.41.08s-.1.4-.16.61a7.35,7.35,0,0,1-.57,1.29l-.16.29-.08.13L23,14.65a2.51,2.51,0,0,0-.59-.44.42.42,0,0,1-.15-.09s.54-.51.95-.87.93-.76.94-.75Zm2.52,1,.16.1a12.3,12.3,0,0,1,1.09.81c.18.15.53.46.6.54l0,0-.26.07c-1.45.4-2.57.76-3.88,1.24l-.28.1s0,0,.29-.28a13.64,13.64,0,0,0,2.13-2.45l.11-.17ZM26,13.7s-.43.62-.69,1-.86,1.1-1.24,1.55c-.16.19-.3.34-.3.35s0-.05,0-.12a2.55,2.55,0,0,0-.27-1.14c-.07-.15-.08-.18-.07-.2s1-.58,1.57-.89c.39-.21,1-.52,1-.52Zm-4,1,.16.08a2.78,2.78,0,0,1,.55.37l-.18.15c-.3.21-.76.56-1,.77s-.29.23-.25.18a7.06,7.06,0,0,0,.42-.73,6.11,6.11,0,0,0,.27-.66.38.38,0,0,1,.06-.16Zm1.07.83s0,0,.12.16a2.17,2.17,0,0,1,.35.92v.06l-.43.17c-.78.3-1.5.6-2,.82l-.53.26-.28.13.21-.16a13.16,13.16,0,0,0,2.39-2.2l.13-.16Zm-.49.12a5.9,5.9,0,0,1-.6.68,10.89,10.89,0,0,1-2,1.59l-.19.12s0,0,.34-.38.36-.42.55-.65a1,1,0,0,1,.31-.3C21.48,16.36,22.55,15.63,22.57,15.64Z"/><path class="cls-5" d="M8.83,28.78H8.66a2.64,2.64,0,0,0-2.45,1.6,4.22,4.22,0,0,0,0,3.05A2.63,2.63,0,0,0,8.44,35c.24,0,.4.17.86.71l.57.66h1l-.69-.69a6.69,6.69,0,0,1-.68-.74s.14-.09.32-.14a2.36,2.36,0,0,0,1.39-1.31,2.78,2.78,0,0,0,.35-1.41c.1-2-1-3.31-2.76-3.29Zm.91,5.33A2.42,2.42,0,0,1,8,34.22,2.18,2.18,0,0,1,6.85,33a3.53,3.53,0,0,1,.07-2.32,1.94,1.94,0,0,1,1.86-1.22c1.25,0,2,.77,2.06,2.21a2.42,2.42,0,0,1-1.1,2.49Zm17.81-3.59a1.11,1.11,0,0,0-1,.52l-.17.27V30.6h-.75v4.26h.75V33.5c0-1.25,0-1.39.19-1.73a.93.93,0,0,1,1.05-.59l.27.08v-.74Zm-4.4,0a2.38,2.38,0,0,0-.45.05,2.14,2.14,0,0,0-1.54,2.21,2.12,2.12,0,0,0,.56,1.67,2.33,2.33,0,0,0,2.56.37l.35-.16V34l-.35.18a1.67,1.67,0,0,1-1.91-.06,1.93,1.93,0,0,1-.51-1.13h3v-.57a1.69,1.69,0,0,0-1.73-1.89Zm-1.22,1.87a1.74,1.74,0,0,1,.53-1,1.12,1.12,0,0,1,.65-.21,1,1,0,0,1,.63.21,1.67,1.67,0,0,1,.44,1H21.93Zm-18-.77c-.81-.49-1.17-.85-1.12-1.27.12-1.15,1.55-1,2.34-.56V29A3.07,3.07,0,0,0,4,28.78a1.79,1.79,0,0,0-1.87.94c-.43,1,0,1.66,1.32,2.46.77.45,1.11.84,1.11,1.26,0,.87-1.06,1.18-2.15.63L2,33.87a6.56,6.56,0,0,0,0,.84,5,5,0,0,0,.84.24c1.24.24,2.37-.34,2.48-1.29s-.23-1.35-1.45-2.08Zm30.3-1.11a2.69,2.69,0,0,0-.47.05,2.13,2.13,0,0,0-1.52,2.21,2.13,2.13,0,0,0,.56,1.67,2.31,2.31,0,0,0,2.55.36l.36-.15v-.67l-.36.18a1.69,1.69,0,0,1-1.9-.06,2,2,0,0,1-.51-1.13h3v-.57a1.7,1.7,0,0,0-1.73-1.89ZM33,32.34a1.76,1.76,0,0,1,.52-1,1.07,1.07,0,0,1,.65-.21,1,1,0,0,1,.63.21,1.69,1.69,0,0,1,.45,1H33Zm-13.73-.75c-.81-.49-1.17-.85-1.12-1.27.12-1.15,1.55-1,2.34-.56V29a3.07,3.07,0,0,0-1.07-.2,1.79,1.79,0,0,0-1.87.94c-.43.95-.05,1.66,1.32,2.46.77.45,1.11.83,1.11,1.25,0,.88-1.06,1.19-2.14.64l-.43-.21a6.57,6.57,0,0,0,0,.84,4.69,4.69,0,0,0,.83.24c1.25.25,2.38-.33,2.49-1.28s-.23-1.35-1.45-2.08Zm19.35-1.08a1.09,1.09,0,0,0-1,.52l-.18.27v-.71h-.74v4.26h.74V33.49c0-1.25,0-1.39.19-1.73a.94.94,0,0,1,1-.59l.27.08v-.74Zm-25.3,1V28.85h-.75v6H15.7v-.71H13.28V31.56Zm17.46.85L30.11,34l-.59-1.63-.61-1.8h-.78c.51,1.42,1.05,2.86,1.6,4.26h.71l.84-2.11.86-2.15H31.4s-.33.85-.67,1.81ZM15,27.21a.45.45,0,0,0,.31-.12.44.44,0,0,0,0-.6.43.43,0,0,0-.31-.12.41.41,0,0,0-.3.12.4.4,0,0,0-.12.3.41.41,0,0,0,.12.31.44.44,0,0,0,.3.11Zm-.27-.69a.41.41,0,0,1,.54,0,.39.39,0,0,1,0,.54.37.37,0,0,1-.27.11.33.33,0,0,1-.26-.11.33.33,0,0,1-.11-.27A.36.36,0,0,1,14.75,26.52Zm.18.31H15s.07,0,.1.1l.06.13h.09l-.07-.15c0-.06-.06-.09-.1-.1a.28.28,0,0,0,.11,0,.17.17,0,0,0,0-.1.13.13,0,0,0,0-.1.25.25,0,0,0-.16,0h-.16v.55h.08v-.23Zm0-.25H15a.22.22,0,0,1,.1,0s0,0,0,.07,0,.09-.12.09h-.08v-.18Zm-12.47.2c0-.19,0-.33,0-.41h0a1.62,1.62,0,0,0,.06.22l.73,1.62h.12l.72-1.64a1,1,0,0,0,.06-.2h0c0,.16,0,.3,0,.41v1.43h.25V26.09H4.08l-.67,1.47c0,.06-.06.15-.1.27h0a1.3,1.3,0,0,0-.1-.26l-.65-1.49H2.22V28.2h.24V26.78Zm2.47,0h.22v1.33H4.93ZM5,26.3a.16.16,0,0,0,.11-.05.13.13,0,0,0,0-.11.13.13,0,0,0,0-.11.17.17,0,0,0-.22,0,.16.16,0,0,0,0,.11c0,.05,0,.09,0,.11A.16.16,0,0,0,5,26.3Zm1.63,1.84V27.9A.58.58,0,0,1,6.3,28a.5.5,0,0,1-.38-.15.61.61,0,0,1-.14-.42A.63.63,0,0,1,5.93,27a.49.49,0,0,1,.38-.16.66.66,0,0,1,.36.11v-.24a.67.67,0,0,0-.35-.08.75.75,0,0,0-.57.23.84.84,0,0,0-.21.6.76.76,0,0,0,.19.54.67.67,0,0,0,.52.22.87.87,0,0,0,.42-.1Zm.62-.71A.64.64,0,0,1,7.4,27a.3.3,0,0,1,.25-.13.24.24,0,0,1,.18.05v-.26l-.15,0a.35.35,0,0,0-.23.09.45.45,0,0,0-.16.25h0v-.31H7v1.52h.24v-.78Zm1.39.81A.71.71,0,0,0,9.23,28a1,1,0,0,0,0-1.16.66.66,0,0,0-.53-.21.75.75,0,0,0-.54.2.9.9,0,0,0,0,1.17.67.67,0,0,0,.54.22ZM8.34,27a.49.49,0,0,1,.36-.14.47.47,0,0,1,.36.14.67.67,0,0,1,.13.45.64.64,0,0,1-.12.42A.42.42,0,0,1,8.7,28a.44.44,0,0,1-.36-.16.56.56,0,0,1-.14-.42A.6.6,0,0,1,8.34,27Zm2.16,1.11a.43.43,0,0,0,.14-.31.38.38,0,0,0-.11-.28,1,1,0,0,0-.28-.17,1.11,1.11,0,0,1-.23-.12.22.22,0,0,1-.07-.16.19.19,0,0,1,.08-.15.29.29,0,0,1,.19-.06.63.63,0,0,1,.35.11v-.24a.73.73,0,0,0-.33-.08.58.58,0,0,0-.38.13.37.37,0,0,0-.15.32.4.4,0,0,0,.09.27.79.79,0,0,0,.28.17.79.79,0,0,1,.24.14.17.17,0,0,1,.07.14c0,.15-.1.22-.29.22a.56.56,0,0,1-.39-.15v.27a.72.72,0,0,0,.37.09.66.66,0,0,0,.42-.14Zm1.16-1.46a.76.76,0,0,0-.55.2.9.9,0,0,0,0,1.17.67.67,0,0,0,.54.22.73.73,0,0,0,.55-.22.81.81,0,0,0,.21-.58.86.86,0,0,0-.19-.58.71.71,0,0,0-.53-.21Zm.47.8a.64.64,0,0,1-.12.42.51.51,0,0,1-.74,0,.77.77,0,0,1,0-.87.48.48,0,0,1,.37-.15A.46.46,0,0,1,12,27a.8.8,0,0,1,.12.45Zm.65.75H13V26.89h.35v-.2H13v-.24c0-.21.08-.32.25-.32a.38.38,0,0,1,.16,0V26a.44.44,0,0,0-.18,0,.45.45,0,0,0-.32.12.52.52,0,0,0-.16.39v.25h-.25v.21h.25v1.31Zm1-.41c0,.3.13.45.4.45a.49.49,0,0,0,.23,0V28a.3.3,0,0,1-.16.05.21.21,0,0,1-.17-.06.34.34,0,0,1-.06-.22v-.86h.39v-.2H14v-.45l-.24.08v.37h-.26v.2h.26v.9Zm26.09,2.8a.41.41,0,0,0-.3-.12.43.43,0,0,0-.31.12.42.42,0,0,0-.12.3.39.39,0,0,0,.12.3.43.43,0,0,0,.31.12.41.41,0,0,0,.3-.12.38.38,0,0,0,.13-.3.4.4,0,0,0-.13-.3Zm0,.57a.37.37,0,0,1-.27.11.36.36,0,0,1-.26-.11.36.36,0,0,1-.12-.27.38.38,0,1,1,.76,0A.33.33,0,0,1,39.83,31.16Zm-.22-.25a.19.19,0,0,0,.1-.05.13.13,0,0,0,0-.1.12.12,0,0,0,0-.1.21.21,0,0,0-.15,0h-.16v.54h.08v-.23h.05s.07,0,.1.1l.05.13h.1L39.69,31a.14.14,0,0,0-.08-.1Zm0-.05h-.09v-.18h.07l.11,0a.14.14,0,0,1,0,.07c0,.06,0,.09-.11.09ZM26,26.62h.06v-.54h.18V26h-.42v.07H26v.54Zm.41-.4a.45.45,0,0,0,0-.13.25.25,0,0,1,0,.07l.21.46h0l.21-.47,0-.06a.57.57,0,0,0,0,.12v.41H27V26h-.08l-.19.42,0,.08h0a.13.13,0,0,0,0-.07L26.43,26h-.09v.62h.06v-.41Z"/></svg>