<svg id="Layer_1" data-name="Layer 1" xmlns="http://www.w3.org/2000/svg" viewBox="0 0 42 42"><defs><style>.cls-1{fill:#231f20;fill-rule:evenodd;}.cls-2{fill:none;}</style></defs><path class="cls-1" d="M2,31.39V10.61H40V31.39H23.58V28.28a7.83,7.83,0,0,0,6.26-7.81,7.86,7.86,0,1,0-15.72,0,8,8,0,0,0,5.65,7.71V24.73a4.8,4.8,0,0,1-2.4-4.26,4.61,4.61,0,1,1,9.21,0c0,2-1.4,4.16-3,4.46v-2.6H20.77v9.06ZM13,12.76H7.86A3.81,3.81,0,0,0,4,16.82c0,3.9,6.16,5.51,6.16,7.16a1,1,0,0,1-1.05,1.1H4.05v3.1H9.21c3.4,0,4.36-2.55,4.36-4.7,0-3.21-6.11-5.31-6.11-6.71a1.05,1.05,0,0,1,1.15-1.15H13V12.76Zm17.58,0V23.53c0,3.4,1.65,4.65,4.15,4.65H38V24.93H35.49c-1.1,0-1.65-.4-1.65-1.85V12.76Z"/><rect class="cls-2" width="42" height="42"/></svg>