<?xml version="1.0" encoding="UTF-8"?>
<svg width="20px" height="20px" viewBox="0 0 20 20" version="1.1" xmlns="http://www.w3.org/2000/svg" xmlns:xlink="http://www.w3.org/1999/xlink">
    <!-- Generator: sketchtool 63.1 (101010) - https://sketch.com -->
    <title>21362E0A-25FC-4F2E-AC71-69AFE11EAF99@1.5x</title>
    <desc>Created with sketchtool.</desc>
    <g id="Page-1" stroke="none" stroke-width="1" fill="none" fill-rule="evenodd">
        <g id="012_dataSource_list" transform="translate(-1303.000000, -209.000000)">
            <g id="Group-2" transform="translate(1301.000000, 207.000000)">
                <g id="view_data">
                    <g>
                        <rect id="Rectangle" x="0" y="0" width="24" height="24"></rect>
                        <rect id="Rectangle" fill="#54595F" fill-rule="nonzero" x="7.44" y="11.75" width="1" height="2.64"></rect>
                        <rect id="Rectangle" fill="#54595F" fill-rule="nonzero" x="8.95" y="10.49" width="1" height="3.91"></rect>
                        <rect id="Rectangle" fill="#54595F" fill-rule="nonzero" x="10.46" y="6.81" width="1" height="7.58"></rect>
                        <rect id="Rectangle" fill="#54595F" fill-rule="nonzero" x="11.96" y="8.3" width="1" height="6.09"></rect>
                        <rect id="Rectangle" fill="#54595F" fill-rule="nonzero" x="13.47" y="9.62" width="1" height="4.77"></rect>
                        <path d="M20.91,20.26 L20.71,20.06 L20.71,20.06 L16.53,15.87 L16.59,15.8 C19.3350021,12.6297234 19.0777584,7.85535325 16.0080072,4.99837627 C12.938256,2.14139929 8.15773033,2.22718399 5.19245716,5.19245716 C2.22718399,8.15773033 2.14139929,12.938256 4.99837627,16.0080072 C7.85535325,19.0777584 12.6297234,19.3350021 15.8,16.59 L15.87,16.53 L20.06,20.71 L20.06,20.71 L20.26,20.91 C20.3447221,20.9960408 20.4593095,21.0461728 20.58,21.05 C20.7041756,21.0487616 20.8228147,20.9984299 20.91,20.91 C21.0892826,20.7304206 21.0892826,20.4395794 20.91,20.26 Z M10.72,17.56 C6.94237231,17.56 3.88,14.4976277 3.88,10.72 C3.88,6.94237231 6.94237231,3.88 10.72,3.88 C14.4976277,3.88 17.56,6.94237231 17.56,10.72 C17.5544926,14.4953441 14.4953441,17.5544926 10.72,17.56 Z" id="Shape" fill="#54595F" fill-rule="nonzero"></path>
                    </g>
                </g>
            </g>
        </g>
    </g>
</svg>